<?xml version="1.0" encoding="UTF-8"?>
<!DOCTYPE svg PUBLIC "-//W3C//DTD SVG 1.1//EN" "http://www.w3.org/Graphics/SVG/1.1/DTD/svg11.dtd">
<!-- Creator: CorelDRAW X7 -->
<svg xmlns="http://www.w3.org/2000/svg" xml:space="preserve" width="93.1989mm" height="86.4281mm" version="1.1" style="shape-rendering:geometricPrecision; text-rendering:geometricPrecision; image-rendering:optimizeQuality; fill-rule:evenodd; clip-rule:evenodd"
viewBox="0 0 4896 4540"
 xmlns:xlink="http://www.w3.org/1999/xlink">
 <defs>
  <style type="text/css">
   <![CDATA[
    .fil36 {fill:none}
    .fil0 {fill:#F2F3F3}
    .fil6 {fill:#000072}
    .fil18 {fill:#0AB6F0}
    .fil2 {fill:#0BCBFF}
    .fil9 {fill:#452735}
    .fil14 {fill:#672D37}
    .fil25 {fill:#673240}
    .fil20 {fill:#77CDF0}
    .fil29 {fill:#7A7AB5}
    .fil17 {fill:#85E5FF}
    .fil16 {fill:#8C7086}
    .fil11 {fill:#93411D}
    .fil5 {fill:#93482B}
    .fil35 {fill:#981B7D}
    .fil15 {fill:#A37D80}
    .fil33 {fill:#A3A3CB}
    .fil24 {fill:#A51D7F}
    .fil34 {fill:#A95221}
    .fil8 {fill:#AFAFD2}
    .fil27 {fill:#B20040}
    .fil30 {fill:#B28722}
    .fil13 {fill:#B2B2D4}
    .fil19 {fill:#BD5C18}
    .fil32 {fill:#BE2280}
    .fil31 {fill:#C8C9E0}
    .fil12 {fill:#C9A08E}
    .fil21 {fill:#D0A084}
    .fil3 {fill:#D3670D}
    .fil4 {fill:#E9B386}
    .fil22 {fill:#ED2A84}
    .fil23 {fill:#F695C2}
    .fil7 {fill:#FAFBFB}
    .fil26 {fill:#FF002B}
    .fil28 {fill:#FFC200}
    .fil10 {fill:white}
    .fil1 {fill:#373435;fill-rule:nonzero}
   ]]>
  </style>
 </defs>
 <g id="Capa_x0020_1">
  <metadata id="CorelCorpID_0Corel-Layer"/>
  <g id="_406403896">
   <path class="fil0" d="M2469 700c1019,0 1845,826 1845,1845 0,1019 -826,1845 -1845,1845 -1019,0 -1845,-826 -1845,-1845 0,-1019 826,-1845 1845,-1845z"/>
   <path class="fil1" d="M998 4180l0 -146c0,-13 3,-22 9,-28 5,-6 13,-10 22,-10 9,0 17,4 22,10 6,6 9,15 9,28l0 149c0,17 2,31 6,43 3,11 10,20 20,26 9,6 23,10 40,10 24,0 41,-7 51,-20 10,-12 15,-32 15,-58l0 -150c0,-13 3,-22 8,-28 6,-7 13,-10 23,-10 9,0 16,3 22,10 6,6 9,15 9,28l0 146c0,23 -3,43 -7,59 -5,16 -14,30 -27,42 -11,10 -23,18 -38,22 -15,5 -32,7 -51,7 -24,0 -44,-2 -61,-7 -17,-5 -30,-13 -41,-24 -11,-10 -18,-24 -23,-40 -5,-17 -8,-36 -8,-59zm519 -128l-67 0 0 221c0,13 -3,22 -8,28 -6,6 -13,9 -22,9 -9,0 -17,-3 -23,-9 -5,-6 -8,-16 -8,-28l0 -221 -67 0c-11,0 -19,-2 -24,-7 -5,-4 -7,-10 -7,-18 0,-8 2,-14 8,-19 5,-4 13,-6 23,-6l195 0c11,0 19,2 24,7 5,4 8,10 8,18 0,8 -3,14 -8,18 -5,5 -13,7 -24,7zm186 135l-56 0 0 86c0,12 -3,21 -9,28 -6,6 -13,9 -22,9 -9,0 -17,-3 -22,-9 -6,-6 -9,-16 -9,-28l0 -234c0,-13 3,-23 10,-29 6,-6 16,-8 29,-8l79 0c23,0 41,1 54,5 12,3 23,9 32,17 9,8 16,18 21,29 4,12 7,25 7,40 0,31 -10,54 -29,70 -19,16 -47,24 -85,24zm-15 -139l-41 0 0 93 41 0c15,0 27,-2 37,-5 9,-3 17,-8 22,-15 5,-7 7,-16 7,-27 0,-13 -4,-24 -11,-33 -9,-9 -27,-13 -55,-13zm251 172l-66 0c-10,0 -17,-2 -23,-7 -5,-5 -7,-11 -7,-18 0,-7 2,-14 7,-18 5,-5 13,-7 23,-7l66 0c10,0 17,2 22,7 5,4 8,11 8,18 0,7 -2,13 -7,18 -5,5 -13,7 -23,7zm329 -11c0,10 -2,20 -7,32 -5,11 -12,22 -23,33 -10,11 -23,19 -39,26 -16,7 -34,10 -55,10 -16,0 -31,-1 -44,-4 -13,-3 -25,-8 -36,-14 -10,-7 -20,-15 -29,-26 -8,-9 -15,-20 -21,-32 -5,-12 -9,-24 -12,-38 -3,-13 -5,-27 -5,-42 0,-25 4,-47 11,-66 7,-19 17,-36 31,-49 13,-14 28,-25 46,-32 18,-7 37,-11 57,-11 25,0 47,5 66,15 19,10 34,22 44,36 10,15 15,28 15,41 0,7 -2,14 -7,19 -5,5 -11,8 -18,8 -8,0 -14,-2 -18,-6 -4,-3 -8,-10 -13,-19 -8,-15 -17,-26 -28,-34 -11,-7 -24,-11 -40,-11 -26,0 -46,10 -61,29 -15,19 -22,46 -22,82 0,23 3,43 10,59 6,15 16,27 28,35 12,8 26,12 43,12 17,0 32,-5 44,-14 13,-8 22,-21 28,-38 3,-8 6,-15 10,-20 4,-5 10,-7 18,-7 8,0 14,2 19,7 5,5 8,12 8,19zm171 70l0 -39 -104 0c-13,0 -23,-3 -30,-9 -6,-6 -10,-14 -10,-24 0,-2 1,-5 2,-8 1,-2 2,-5 4,-8 2,-3 4,-6 6,-9 2,-3 5,-6 8,-10l110 -147c7,-9 13,-16 17,-21 5,-4 10,-6 17,-6 21,0 31,12 31,36l0 160 9 0c11,0 19,1 26,4 6,3 9,10 9,19 0,8 -2,14 -7,18 -6,3 -14,5 -24,5l-13 0 0 39c0,10 -2,18 -7,24 -4,5 -11,7 -19,7 -7,0 -14,-2 -18,-8 -5,-5 -7,-13 -7,-23zm-89 -85l89 0 0 -120 -89 120zm343 -7l-56 0 0 86c0,12 -3,21 -9,28 -6,6 -13,9 -22,9 -9,0 -17,-3 -22,-9 -6,-6 -9,-16 -9,-28l0 -234c0,-13 3,-23 10,-29 6,-6 16,-8 29,-8l79 0c23,0 41,1 54,5 12,3 23,9 32,17 9,8 16,18 21,29 4,12 7,25 7,40 0,31 -10,54 -29,70 -19,16 -47,24 -85,24zm-15 -139l-41 0 0 93 41 0c15,0 27,-2 37,-5 9,-3 17,-8 22,-15 5,-7 7,-16 7,-27 0,-13 -4,-24 -11,-33 -9,-9 -27,-13 -55,-13zm267 229l0 -189c-35,27 -59,41 -71,41 -6,0 -11,-3 -16,-7 -4,-5 -6,-10 -6,-16 0,-7 2,-12 6,-16 5,-3 12,-7 24,-13 16,-7 30,-16 40,-24 10,-9 19,-19 26,-30 8,-10 13,-17 16,-19 2,-3 6,-4 13,-4 7,0 13,3 17,8 5,6 7,14 7,24l0 237c0,27 -9,41 -28,41 -9,0 -16,-3 -21,-8 -5,-6 -7,-14 -7,-25zm305 -108c-9,11 -20,19 -31,25 -11,5 -24,8 -37,8 -13,0 -25,-3 -37,-8 -11,-5 -21,-12 -29,-21 -8,-9 -14,-20 -19,-32 -4,-12 -6,-24 -6,-38 0,-14 2,-27 7,-40 5,-13 12,-24 21,-33 10,-10 21,-17 33,-22 13,-6 27,-8 43,-8 18,0 34,3 48,10 13,6 25,15 35,28 9,12 17,28 22,47 5,18 7,40 7,63 0,27 -2,50 -8,70 -5,20 -13,37 -23,51 -11,14 -23,24 -37,31 -15,7 -31,10 -49,10 -18,0 -34,-4 -47,-10 -13,-7 -23,-16 -30,-26 -7,-10 -11,-20 -11,-29 0,-6 3,-11 7,-16 4,-4 10,-6 16,-6 6,0 12,1 17,5 4,3 8,8 11,15 3,8 8,15 15,20 7,5 15,7 24,7 7,0 15,-2 22,-6 7,-4 13,-9 18,-17 10,-14 16,-40 18,-78zm-5 -63c0,-10 -1,-18 -4,-26 -2,-8 -6,-15 -11,-21 -4,-6 -10,-10 -16,-14 -7,-3 -14,-4 -21,-4 -13,0 -25,5 -34,16 -9,12 -13,27 -13,45 0,18 4,33 13,44 9,11 21,16 35,16 9,0 17,-2 25,-6 7,-5 14,-11 19,-20 5,-9 7,-19 7,-30zm394 76l0 58c0,8 0,14 -2,18 -1,5 -4,9 -8,13 -4,4 -10,7 -16,11 -18,10 -36,17 -53,21 -17,5 -35,7 -55,7 -24,0 -45,-3 -64,-10 -19,-8 -36,-18 -49,-32 -14,-13 -24,-30 -31,-49 -8,-20 -11,-42 -11,-66 0,-23 3,-45 10,-64 7,-20 18,-37 31,-50 14,-14 31,-24 50,-32 20,-7 42,-11 67,-11 20,0 39,3 54,9 16,5 29,12 39,20 9,8 17,17 22,26 5,10 7,18 7,25 0,8 -3,14 -8,20 -6,5 -13,8 -21,8 -4,0 -9,-1 -13,-3 -4,-2 -7,-5 -10,-9 -8,-12 -14,-20 -19,-27 -6,-6 -13,-11 -22,-15 -8,-4 -20,-6 -34,-6 -14,0 -27,2 -38,7 -11,5 -20,12 -28,22 -8,9 -14,20 -19,34 -4,13 -6,28 -6,45 0,35 8,63 25,82 16,19 39,29 68,29 14,0 28,-2 40,-6 13,-4 25,-9 38,-16l0 -49 -47 0c-12,0 -21,-2 -27,-5 -5,-4 -8,-10 -8,-18 0,-7 2,-12 7,-17 5,-4 12,-6 20,-6l70 0c8,0 16,1 22,2 6,2 10,5 14,10 4,5 5,13 5,24zm142 -60c13,0 24,-4 33,-11 9,-8 14,-18 14,-32 0,-11 -4,-20 -11,-28 -8,-7 -17,-11 -30,-11 -8,0 -15,1 -21,3 -5,3 -9,6 -13,10 -3,3 -6,8 -9,14 -3,7 -5,12 -7,18 -2,3 -4,5 -8,7 -3,1 -8,2 -12,2 -6,0 -11,-2 -16,-7 -4,-4 -6,-10 -6,-18 0,-7 2,-14 6,-22 4,-8 11,-16 19,-23 8,-7 19,-13 31,-17 13,-5 27,-7 42,-7 13,0 26,2 37,6 11,3 20,9 28,16 9,6 15,14 19,24 4,9 6,19 6,29 0,14 -3,26 -9,35 -6,10 -15,20 -26,29 11,6 20,13 28,20 7,8 12,16 16,25 4,9 6,19 6,29 0,13 -3,25 -8,37 -5,11 -12,22 -22,31 -10,9 -22,16 -35,22 -13,5 -28,7 -45,7 -16,0 -31,-3 -44,-9 -13,-6 -24,-13 -33,-22 -8,-9 -14,-18 -19,-27 -4,-10 -6,-18 -6,-24 0,-8 2,-14 7,-19 6,-5 12,-8 20,-8 4,0 7,1 11,4 3,2 6,5 7,8 7,19 15,33 23,43 8,9 20,14 35,14 8,0 17,-3 25,-7 7,-4 14,-10 19,-18 5,-9 8,-18 8,-29 0,-16 -4,-29 -13,-38 -9,-9 -21,-14 -37,-14 -3,0 -7,0 -13,1 -6,0 -10,1 -11,1 -8,0 -14,-2 -18,-6 -4,-4 -6,-9 -6,-16 0,-7 2,-12 7,-16 5,-4 13,-6 23,-6l8 0z"/>
   <path class="fil2" d="M3997 2524c0,-848 -688,-1535 -1536,-1535 -848,0 -1535,687 -1535,1535 0,517 255,974 646,1252l1779 0c391,-278 646,-735 646,-1252z"/>
   <path class="fil3" d="M1002 3236c14,78 69,222 274,222l0 150c0,0 -408,-12 -296,-373 3,-11 20,-11 22,1z"/>
   <path class="fil4" d="M1084 3530c-25,-15 -48,-35 -66,-60 -34,-48 -44,-112 -28,-188 3,10 7,20 12,30 -13,106 27,174 82,218z"/>
   <path class="fil5" d="M1216 3578c-15,-3 -32,-7 -51,-13 -32,-31 -57,-74 -64,-131 24,15 53,28 87,36l2 16c5,27 12,53 21,79 2,4 4,9 5,13z"/>
   <path class="fil6" d="M980 3240l0 0 0 0zm10 42c-16,76 -6,140 28,188 61,85 184,108 235,114l0 -104c-172,-9 -238,-121 -263,-198zm286 348c0,0 -1,0 -1,0 -8,0 -203,-7 -293,-133 -49,-70 -57,-160 -24,-269 5,-15 19,-24 35,-23 15,0 28,11 31,27 14,76 66,203 252,203 12,0 22,10 22,23l0 150c0,6 -2,12 -7,16 -4,4 -9,6 -15,6z"/>
   <path class="fil7" d="M2431 3608c-2,-187 18,-467 18,-467l-351 166c0,222 123,468 123,468l221 0 58 0c8,-16 12,-33 12,-51 0,-49 -32,-92 -81,-116z"/>
   <path class="fil8" d="M2437 3752l-159 0c2,-8 3,-17 3,-26 1,-19 -3,-40 -12,-57 -8,-19 -20,-34 -34,-48 -11,-10 -22,-18 -35,-25 0,-30 1,-59 2,-88 1,-32 2,-63 3,-95 81,-44 147,-95 197,-155 -23,104 -51,254 -50,366 49,24 89,50 89,99 0,10 -1,20 -4,29z"/>
   <path class="fil6" d="M2235 3752l250 0c3,-9 5,-18 5,-28 0,-39 -26,-75 -69,-96 -8,-4 -12,-11 -12,-20 -2,-145 9,-347 15,-431l-304 145c4,182 91,380 115,430zm265 45l-279 0c-9,0 -17,-5 -20,-12 -6,-11 -126,-253 -126,-478 0,-8 5,-16 13,-20l351 -166c7,-4 16,-3 22,1 7,5 11,12 10,20 0,3 -19,269 -18,453 51,29 82,77 82,129 0,21 -5,41 -15,61 -4,7 -11,12 -20,12z"/>
   <path class="fil9" d="M1847 2617c0,0 -79,4 -184,34 -12,88 -67,164 -147,205 -246,125 -429,543 -230,797 17,22 38,43 61,62 17,14 33,26 50,36 -27,-39 -48,-84 -50,-125 -2,-46 18,-85 79,-101 185,-48 35,-345 90,-496 55,-151 158,-153 277,-177 118,-25 54,-235 54,-235z"/>
   <path class="fil6" d="M1666 2653c-13,88 -68,165 -148,206 -140,71 -261,238 -300,416 -32,144 -7,278 71,376 17,22 37,43 60,62 12,10 25,19 38,28 -26,-40 -41,-80 -43,-115 -2,-37 10,-85 81,-104 112,-29 99,-151 85,-279 -9,-77 -18,-157 3,-215 49,-136 137,-152 239,-171 13,-3 27,-5 40,-8 23,-5 40,-17 52,-37 36,-60 6,-174 1,-192 -14,1 -87,7 -179,33zm-258 1108l-12 -7c-18,-11 -35,-23 -51,-37 -23,-19 -43,-40 -61,-62 -79,-100 -104,-235 -72,-381 40,-180 161,-349 303,-421 79,-40 134,-116 145,-202l1 -2 2 -1c103,-30 184,-34 184,-34l3 0 0 3c2,5 39,130 -1,198 -12,21 -31,35 -56,40 -13,2 -26,5 -39,7 -101,19 -187,36 -235,168 -21,56 -12,136 -3,212 13,125 28,255 -89,286 -53,14 -80,48 -77,98 2,36 20,81 50,123l8 12z"/>
   <path class="fil10" d="M2404 2574c0,0 381,637 -381,893 0,0 -346,459 -674,188 -276,-227 -93,-683 160,-812 82,-42 137,-124 141,-216l0 0 754 -53z"/>
   <path class="fil3" d="M1977 2604c7,54 44,125 156,201 244,168 173,399 62,422 0,0 6,-131 -238,-154 -208,-19 -96,398 -58,523 -16,13 -32,26 -49,39 -1,-1 -40,-33 -94,-40 0,0 110,-140 -90,-166 -185,-24 -221,118 -375,168 -188,-240 -15,-635 218,-754 82,-42 137,-124 141,-216l0 0 327 -23z"/>
   <path class="fil11" d="M1519 2863c-130,66 -243,228 -276,394l0 0 0 0c-22,101 -21,190 1,266 9,-29 35,-49 95,-46 206,8 86,-285 90,-415 3,-131 140,-107 197,-167 33,-33 18,-86 0,-126 -27,39 -63,72 -107,94z"/>
   <path class="fil4" d="M1236 3292c2,-11 4,-23 7,-34 0,0 0,0 0,-1l0 0c-2,12 -5,23 -7,35 0,0 0,0 0,0zm123 -290c46,-60 101,-109 160,-139 0,0 0,0 0,0 1,0 1,0 1,0 0,0 0,0 0,0 0,0 0,0 0,0 0,-1 0,-1 0,-1 0,0 1,0 1,0 0,0 0,0 0,0 0,0 0,0 0,0 0,0 0,0 0,0 0,0 1,0 1,0 0,0 0,0 0,0 0,0 0,-1 0,-1 0,0 0,0 0,0 0,0 0,0 0,0 1,0 1,0 1,0 0,0 0,0 0,0 0,0 0,0 0,0 0,0 0,0 0,0 1,0 1,0 1,0 0,-1 0,-1 0,-1 0,0 0,0 0,0 0,0 0,0 0,0 1,0 1,0 1,0 0,0 0,0 0,0 0,0 0,0 0,0 0,0 0,0 0,0 1,0 1,0 1,-1 0,0 0,0 0,0 0,0 0,0 0,0 0,0 0,0 0,0 -2,2 -5,3 -7,4 -59,30 -114,79 -160,139zm168 -143c0,0 0,0 0,0 0,0 0,0 0,0zm110 -63c-3,-9 -7,-19 -11,-27 6,-10 12,-21 18,-31 6,3 12,7 19,10 -7,17 -16,33 -26,48z"/>
   <path class="fil12" d="M1236 3292c2,-12 5,-23 7,-35l0 0c0,0 0,0 0,0 18,-91 60,-181 116,-255 46,-60 101,-109 160,-139 2,-1 5,-2 7,-4 0,0 0,0 0,0 0,0 1,0 1,0 0,0 0,0 0,0 0,0 0,0 0,0 0,0 0,0 0,0 0,0 0,0 0,0 0,0 0,0 0,0 0,0 1,-1 1,-1 0,0 0,0 0,0 0,0 0,0 0,0 0,0 0,0 0,0 0,0 1,0 1,0 0,0 0,0 0,0 0,0 0,0 0,0 0,0 0,0 0,0 0,-1 1,-1 1,-1 0,0 0,0 0,0 0,0 0,0 0,0 0,0 0,0 0,0 0,0 0,0 1,0 0,0 0,0 0,0 0,0 0,0 0,0 0,0 0,-1 0,-1 0,0 0,0 1,0 0,0 0,0 0,0 0,0 0,0 0,0 0,0 0,0 0,0 0,0 0,0 1,0 0,0 0,0 0,0 0,0 0,-1 0,-1 0,0 0,0 0,0 0,0 0,0 0,0 0,0 0,0 0,0 1,0 1,0 1,0 0,0 0,0 0,0 0,0 0,0 0,0 0,0 0,0 0,0 1,-1 1,-1 1,-1 0,0 0,0 0,0 0,0 0,0 0,0 0,0 0,0 0,0 1,0 1,0 1,0 0,0 0,0 0,0 0,0 0,0 0,-1 0,0 0,0 0,0 1,0 1,0 1,0 0,0 0,0 0,0 0,0 1,0 1,0 0,0 0,0 0,0 0,0 0,-1 0,-1 0,0 0,0 0,0 0,0 0,0 1,0 0,0 0,0 0,0 0,0 0,0 0,0 0,0 0,0 0,0 0,0 0,0 1,-1l0 0c0,0 0,0 1,0 0,0 0,0 0,0 0,0 0,-1 0,-1 0,0 0,0 0,0 1,0 1,0 1,0 0,0 0,0 0,0 0,0 0,0 0,0l0 0c0,0 1,0 1,-1l0 0c33,-21 61,-48 83,-80 4,8 8,18 11,27 -24,36 -57,65 -97,85 -136,69 -251,232 -286,403 -6,3 -12,5 -18,8z"/>
   <path class="fil6" d="M1810 3685c-7,0 -15,-4 -19,-11 -6,-10 -3,-24 7,-31 122,-77 206,-188 207,-189 2,-4 6,-7 11,-8 228,-77 373,-195 432,-353 79,-215 -28,-442 -57,-496l-720 51c-11,91 -68,172 -152,215 -130,66 -243,228 -276,394 -2,12 -14,20 -26,18 -12,-3 -20,-15 -18,-27 36,-181 156,-352 300,-425 75,-38 125,-114 129,-197 0,-11 9,-20 21,-21l753 -53c9,-1 17,3 21,11 7,11 165,280 67,545 -63,170 -216,297 -454,378 -19,25 -100,122 -214,195 -4,2 -8,4 -12,4z"/>
   <path class="fil13" d="M1858 3418c-1,0 -1,-1 -2,-1 0,0 -1,0 -1,0 0,0 -1,0 -1,0 -4,-20 -8,-42 -11,-63 2,0 4,0 6,0 107,0 195,-60 246,-138 24,-9 45,-24 62,-43 4,-5 7,-9 10,-14 16,18 22,36 25,49 -4,17 -8,33 -11,50l-323 160zm347 -56c0,-19 0,-37 0,-56 -1,-27 -2,-54 -4,-81 91,-26 151,-193 20,-343 15,-27 27,-57 36,-89 77,-16 138,-42 184,-77 32,99 57,240 7,377 -41,108 -122,198 -243,269z"/>
   <path class="fil5" d="M1851 3606c-17,-12 -36,-20 -54,-24 -5,-2 -10,-3 -15,-3 7,-17 13,-35 17,-54 3,-14 5,-29 5,-44 -1,-15 -4,-31 -9,-45 -6,-14 -15,-28 -24,-39 -10,-11 -22,-20 -35,-27 -12,-8 -25,-13 -38,-17 -13,-4 -27,-6 -41,-6 2,0 3,1 4,1 -6,-1 -13,-1 -19,-1 -80,0 -132,97 -250,123 80,-26 74,-131 58,-235 3,0 5,0 8,0 63,0 133,16 208,62 62,39 122,56 177,57 3,21 7,43 11,63 -1,1 -2,2 -2,3 -2,16 -3,32 -2,48 0,8 0,16 1,24 1,8 2,16 4,24 2,16 7,31 10,46 3,9 5,18 8,27 -7,5 -15,11 -22,17zm-514 -129c-3,0 -5,0 -8,-1 3,0 7,1 10,1l0 0c-1,0 -2,0 -2,0zm864 -252c0,-7 -1,-13 -1,-20 0,-2 -1,-3 -3,-3 0,0 0,0 -1,0 -1,0 -2,1 -3,2 0,1 0,3 -1,4 -3,-13 -9,-31 -25,-49 35,-51 46,-126 31,-220 -1,-6 -2,-12 -3,-17 9,-12 18,-26 26,-40 131,150 71,317 -20,343zm-400 -404c-29,-15 -53,-30 -72,-46 20,7 41,12 63,17 2,10 5,20 9,29z"/>
   <path class="fil14" d="M1339 3477l0 0c-3,0 -7,-1 -10,-1 -44,-2 -70,-32 -86,-69 -2,-40 2,-82 11,-123 54,-23 120,-47 196,-49 16,104 22,209 -58,235 -16,4 -34,6 -53,7z"/>
   <path class="fil15" d="M1235 3301c0,-3 1,-6 1,-9 0,0 0,0 0,0 0,3 -1,6 -1,9z"/>
   <path class="fil16" d="M1243 3407c-7,-15 -11,-31 -15,-47 2,-20 4,-39 7,-59 0,-3 1,-6 1,-9 6,-3 12,-5 18,-8 -9,41 -13,83 -11,123z"/>
   <path class="fil6" d="M1874 3629c-6,-8 -13,-15 -21,-21 0,-1 -1,-1 -2,-2 7,-6 15,-12 22,-17 2,6 3,13 5,19 2,4 3,9 5,13 -3,3 -6,5 -9,8zm331 -241c0,-9 0,-17 0,-26 121,-71 202,-161 243,-269 50,-137 25,-278 -7,-377 6,-5 13,-10 19,-16 59,174 101,488 -255,688z"/>
   <path class="fil10" d="M1748 3595c19,-45 28,-99 31,-123 1,-4 1,-8 2,-12l0 0c0,-27 -16,-56 -61,-86 -149,-98 -185,99 -381,103 -134,3 -118,-224 -118,-224 -89,412 218,522 218,522l437 0c24,-136 -48,-175 -128,-180z"/>
   <path class="fil6" d="M1221 3275c-1,0 -3,0 -4,0 -12,-3 -20,-15 -18,-27 36,-181 156,-352 300,-425 75,-38 125,-114 129,-197 0,-12 11,-22 23,-21 13,0 22,11 22,23 -5,99 -64,189 -154,235 -130,66 -243,228 -276,394 -2,11 -11,18 -22,18z"/>
   <path class="fil6" d="M1577 3613c34,-15 69,-25 105,-32 37,-6 75,-9 115,1 19,4 39,12 56,26 18,13 31,32 39,52 3,5 4,10 5,15 2,5 3,10 4,15l2 15 1 16 0 7 0 7 -1 15c-1,10 -3,19 -4,29 -2,11 -12,20 -23,19l0 0 -110 -1 -109 0 -218 0 0 0c-3,0 -5,0 -8,-1 -4,-2 -7,-3 -10,-5 -3,-1 -6,-2 -9,-4 -7,-3 -13,-6 -19,-9 -12,-7 -23,-14 -34,-22 -23,-16 -43,-34 -62,-54 -38,-39 -67,-86 -86,-137 -9,-26 -16,-52 -21,-79l-3 -20 -1 -10 -1 -10 -2 -20 0 -20c-1,-53 5,-107 16,-158l0 0c3,-12 15,-20 27,-17 12,2 20,14 17,26l0 0c-11,49 -16,99 -15,148l0 19 2 18 0 9 2 9 2 19c5,24 11,47 19,70 17,46 43,88 76,123 17,17 36,33 55,47 10,7 21,14 31,20 5,2 11,5 16,8 3,1 5,2 8,4 3,1 6,2 7,3l-7 -2 218 0 109 0 110 -1 -24 19c1,-8 2,-16 3,-24l1 -12 0 -6 0 -6 0 -12 -2 -12c0,-4 -1,-7 -2,-11 -1,-3 -2,-7 -3,-10 -5,-14 -13,-25 -24,-34 -10,-10 -24,-17 -39,-21 -31,-10 -65,-11 -100,-9 -35,1 -70,7 -104,14l-1 0c-4,1 -8,-2 -9,-6 0,-4 2,-7 5,-8z"/>
   <path class="fil6" d="M1786 3670c7,5 13,13 16,20 4,8 7,17 9,26 2,9 2,18 3,27 0,4 0,9 0,13l-1 13c0,11 -9,19 -19,18 -10,0 -18,-9 -18,-19 0,-2 1,-5 2,-7l0 0 5 -11c1,-3 2,-7 4,-11 2,-7 4,-15 6,-23 1,-7 1,-15 1,-23 -1,-8 -3,-16 -8,-23z"/>
   <path class="fil6" d="M1700 3682c5,6 9,13 13,19 3,7 6,15 9,22 2,8 4,16 5,24 1,8 1,17 1,25l0 0c0,11 -9,19 -19,18 -11,0 -19,-9 -18,-19 0,-3 0,-5 2,-7 2,-6 5,-12 7,-19 2,-6 3,-13 4,-20 0,-7 1,-14 0,-21 -1,-7 -2,-15 -4,-22z"/>
   <path class="fil6" d="M1657 3347c14,0 28,2 41,6 13,4 26,9 38,17 13,7 25,16 35,27 9,11 18,25 24,39 5,14 8,30 9,45 0,15 -2,30 -5,44 -6,28 -16,55 -29,79 -5,10 -18,14 -27,9 -10,-6 -14,-17 -9,-27l0 0c10,-23 20,-46 23,-69 3,-12 3,-23 2,-35 0,-11 -2,-22 -5,-32 -5,-22 -17,-42 -34,-59 -17,-17 -39,-32 -63,-44z"/>
   <path class="fil7" d="M2023 1750c0,0 133,-5 211,84 0,0 212,-24 212,439 0,0 332,518 -418,518l-3 0c-751,0 -419,-518 -419,-518 0,-463 213,-439 213,-439 77,-89 211,-84 211,-84l-7 0z"/>
   <path class="fil6" d="M1814 1836c-13,0 -53,4 -93,40 -51,46 -112,152 -112,397l0 1 0 1c-2,2 -127,200 -45,348 60,110 215,165 461,165l3 0c246,0 401,-55 461,-165 81,-148 -44,-346 -45,-348l-1 -1 0 -1c0,-245 -60,-351 -111,-397 -50,-44 -98,-40 -98,-39l-2 0 -1 -1c-65,-76 -173,-83 -201,-83l0 0c-1,0 -1,0 -1,0 -2,0 -3,0 -5,0 -1,0 -1,0 -1,0l0 0c-28,0 -137,7 -202,83l-1 1 -2 0c0,0 -1,-1 -4,-1zm214 958l-3 0c-249,0 -406,-56 -467,-168 -80,-147 37,-340 45,-354 0,-247 62,-354 114,-400 47,-42 91,-42 101,-42 67,-76 176,-83 205,-83 0,0 2,0 3,0 2,0 3,0 3,0 29,0 139,7 206,83 9,0 54,0 101,42 51,46 113,153 113,400 9,14 125,207 45,354 -61,112 -218,168 -466,168z"/>
   <path class="fil3" d="M2057 1751c-25,124 -63,467 247,564 0,0 143,18 211,140 -16,-99 -69,-182 -69,-182 0,-463 -212,-439 -212,-439 -53,-61 -132,-78 -177,-83z"/>
   <path class="fil3" d="M2004 1751c25,123 65,467 -246,564 0,0 -163,21 -224,166 10,-110 72,-208 72,-208 0,-463 213,-439 213,-439 56,-65 143,-80 185,-83z"/>
   <path class="fil8" d="M2268 2745c3,-21 5,-43 6,-66 76,-54 133,-128 133,-211 0,-23 -5,-44 -13,-64 -1,-22 -5,-44 -10,-65 21,10 45,23 67,41 4,8 7,17 11,25 9,19 19,38 31,56 8,50 5,105 -21,153 -34,62 -103,106 -204,131l0 0zm-487 -1c-62,-15 -111,-38 -148,-68 41,12 88,20 143,26 1,14 3,28 5,42z"/>
   <path class="fil5" d="M2451 2380c-22,-18 -46,-31 -67,-41 -20,-85 -63,-150 -63,-150 0,-157 -24,-258 -56,-323l78 107c0,0 0,0 0,0 0,0 0,0 0,0l0 0c0,0 0,0 0,0 2,0 3,0 4,0 4,0 8,1 11,3l3 2 2 3c1,1 2,2 3,3l2 3c3,4 5,9 7,14 2,5 3,9 5,14 6,20 9,42 13,63 1,10 2,21 4,31 1,11 2,22 3,33 2,21 4,42 7,65 5,45 15,90 30,134 4,13 9,26 14,39z"/>
   <path class="fil6" d="M2028 2814l-3 0c-256,0 -419,-60 -484,-179 -88,-161 41,-365 46,-374 7,-10 21,-13 31,-7 11,7 14,21 7,31 -1,2 -120,191 -44,329 56,103 205,155 444,155l3 0c238,0 387,-52 444,-155 75,-138 -44,-327 -45,-329 -6,-10 -3,-24 7,-31 10,-6 24,-3 31,7 6,9 134,213 46,374 -65,119 -227,179 -483,179z"/>
   <path class="fil6" d="M2234 1856c-7,0 -13,-3 -17,-8 -60,-69 -161,-75 -187,-76 0,0 0,0 0,0l-7 0c0,0 -1,0 -1,0 -26,1 -127,7 -186,76 -8,10 -23,11 -32,2 -9,-8 -10,-22 -2,-31 76,-88 199,-92 224,-92 25,0 148,4 224,92 9,9 8,23 -2,31 -4,4 -9,6 -14,6z"/>
   <path class="fil3" d="M1819 1834c0,0 -132,-122 -386,-13 -255,109 -361,638 -158,734 178,84 333,-124 358,-371 26,-246 84,-211 84,-211l102 -139z"/>
   <path class="fil17" d="M1351 2574c-1,0 -2,0 -3,0 0,0 1,0 2,0 0,0 1,0 2,0 -1,0 -1,0 -1,0z"/>
   <path class="fil4" d="M1352 2574c-1,0 -2,0 -2,0 12,0 24,-2 36,-5 1,0 1,1 2,1 -12,2 -24,4 -36,4z"/>
   <path class="fil17" d="M1304 2568c-11,-3 -22,-8 -33,-13 -203,-96 -97,-625 157,-734 79,-34 146,-46 201,-46 0,0 0,0 0,0 -54,1 -120,13 -196,46 -255,109 -361,638 -158,734 11,5 21,9 31,12 0,0 -1,0 -2,1z"/>
   <path class="fil4" d="M1306 2567c-10,-3 -20,-7 -31,-12 -203,-96 -97,-625 158,-734 76,-33 142,-45 196,-46 13,0 25,1 37,2 -47,5 -101,18 -162,44 -253,109 -360,634 -161,733 -12,5 -24,9 -37,13z"/>
   <path class="fil18" d="M1346 2574c-15,0 -29,-2 -44,-6 0,0 1,0 2,0 15,4 29,6 44,6 -1,0 -2,0 -2,0z"/>
   <path class="fil19" d="M1386 2569c-13,-3 -26,-8 -40,-14 -1,0 -2,-1 -3,-1 103,-44 187,-150 217,-368 20,-141 90,-196 126,-210 -19,13 -47,58 -62,208 -20,189 -115,355 -238,385z"/>
   <path class="fil19" d="M1706 1972c-1,0 -1,0 -2,0 0,0 0,0 1,0 0,0 1,0 1,0z"/>
   <path class="fil19" d="M1686 1976c6,-3 10,-4 14,-4 2,0 3,0 5,0 -1,0 -1,0 -1,0 0,0 -1,0 -1,0 -4,0 -10,1 -17,4z"/>
   <path class="fil19" d="M1707 1973c-1,0 -1,0 -1,-1 0,1 0,1 1,1z"/>
   <path class="fil20" d="M1348 2574c-15,0 -29,-2 -44,-6 1,-1 2,-1 2,-1 15,4 29,6 44,7 -1,0 -2,0 -2,0z"/>
   <path class="fil21" d="M1350 2574c-15,-1 -29,-3 -44,-7 13,-4 25,-8 37,-13 1,0 2,1 3,1 14,6 27,11 40,14 -12,3 -24,5 -36,5z"/>
   <path class="fil6" d="M1804 1850l-1 -1 -1 -1 -3 -2 -6 -4c-4,-3 -8,-6 -12,-8 -9,-5 -18,-9 -28,-14l-14 -5c-5,-2 -10,-3 -14,-5 -10,-3 -20,-5 -30,-7 -10,-2 -21,-3 -31,-4 -10,-1 -21,-1 -31,-2l-31 2 -31 4c-6,0 -11,1 -16,2l-15 4c-6,1 -11,2 -16,3l-15 5 -15 4 -8 3 -7 2 -30 12 -8 3 -6 3c-5,2 -10,5 -14,7 -9,5 -18,10 -26,16 -17,12 -32,25 -47,40 -29,30 -53,65 -74,102 -21,37 -37,77 -50,117 -13,41 -22,83 -27,125 -5,42 -6,85 -1,126 6,41 18,81 40,112 5,8 11,15 18,22 7,6 14,12 22,16 2,1 4,2 6,3 2,1 4,2 6,3 5,2 9,4 14,6l13 4 14 3c38,7 76,-2 109,-23 33,-20 62,-51 85,-85 23,-35 41,-73 55,-113 14,-40 24,-81 30,-124l5 -32c1,-11 3,-22 5,-33 2,-11 4,-22 7,-33 2,-11 5,-22 8,-33 8,-22 15,-44 27,-64 3,-5 7,-10 11,-14l6 -7c1,-1 2,-2 3,-3 1,-1 2,-2 3,-3l4 -3c1,-1 3,-2 4,-2l4 -2 5 -2c6,-1 13,0 17,3 -5,-1 -11,1 -15,3l-3 3 -2 2c-1,1 -2,2 -3,3l-2 3c-3,4 -4,9 -7,14 -1,5 -3,9 -5,14 -6,20 -9,42 -13,63 -1,10 -2,21 -4,31 -1,11 -2,22 -3,33 -2,21 -4,42 -7,65 -5,45 -15,90 -30,134 -7,21 -15,43 -25,64 -10,20 -21,41 -34,60 -13,20 -27,39 -44,56 -16,17 -34,33 -55,46 -21,13 -44,23 -69,28 -25,5 -51,6 -76,1 -6,-1 -12,-3 -18,-4 -6,-2 -12,-4 -18,-6 -5,-2 -11,-5 -17,-7 -3,-1 -5,-3 -8,-4 -3,-2 -6,-3 -9,-5 -11,-6 -21,-14 -30,-23 -10,-9 -18,-19 -25,-29 -15,-20 -25,-43 -32,-66 -8,-22 -12,-46 -15,-69 -6,-46 -4,-92 2,-138 6,-45 16,-89 30,-133 14,-43 32,-85 55,-125 22,-40 49,-77 81,-111 17,-16 35,-32 54,-45 10,-7 20,-13 30,-19 5,-2 11,-5 16,-8l8 -3 8 -3 32 -13 8 -3 8 -2 17 -5 16 -5c6,-2 11,-3 17,-4l17 -4c5,-1 11,-2 17,-3l34 -4 35 -2c12,1 23,1 35,2 12,1 23,3 35,5 11,2 23,4 34,8 6,2 11,3 17,5l17 7c10,5 21,10 32,16 5,3 10,6 15,9 5,4 10,7 16,12 9,8 10,22 2,32 -8,9 -22,10 -31,2l-1 -1z"/>
   <path class="fil3" d="M2241 1834c0,0 132,-122 387,-13 254,109 360,638 157,734 -178,84 -333,-124 -358,-371 -26,-246 -84,-211 -84,-211l-102 -139z"/>
   <path class="fil4" d="M2867 2290l-21 -14c-21,-176 -117,-370 -260,-431 -15,-7 -30,-13 -45,-18 5,-3 10,-6 15,-9l10 3 8 3 7 2 30 12 8 3 7 3c4,2 9,5 13,7 9,5 18,10 26,16 17,12 33,25 47,40 29,30 54,65 74,102 21,37 37,77 50,117 13,41 22,83 27,125 2,13 3,26 4,39z"/>
   <path class="fil6" d="M2226 1817c6,-5 11,-8 16,-12 5,-3 10,-6 15,-9 11,-6 22,-11 32,-16l17 -7c6,-2 11,-3 17,-5 11,-4 23,-6 34,-8 12,-2 24,-4 35,-5 12,-1 23,-1 35,-2l35 2 34 4c6,1 12,2 17,3l17 4c6,1 12,2 17,4l16 5 17 5 8 2 8 3 32 13 8 3 8 3c5,3 11,6 16,8 10,6 21,12 30,19 20,13 37,29 54,45 32,34 59,71 81,111 23,40 41,82 55,125 14,44 24,88 30,133 6,46 8,92 2,138 -3,23 -7,47 -15,69 -7,23 -17,46 -32,66 -7,10 -15,20 -24,29 -10,9 -20,17 -31,23 -3,2 -6,3 -9,5 -2,1 -5,3 -8,4 -6,2 -11,5 -17,7 -6,2 -12,4 -18,6 -6,1 -12,3 -18,4 -25,5 -51,4 -76,-1 -24,-5 -48,-15 -69,-28 -20,-13 -39,-29 -55,-46 -17,-17 -31,-36 -44,-56 -13,-19 -24,-40 -34,-60 -10,-21 -18,-43 -25,-64 -15,-44 -25,-89 -30,-134 -3,-23 -5,-44 -7,-65 -1,-11 -2,-22 -3,-33 -2,-10 -3,-21 -4,-31 -4,-21 -7,-43 -13,-63 -2,-5 -3,-9 -5,-14 -2,-5 -4,-10 -7,-14l-2 -3c-1,-1 -2,-2 -3,-3l-2 -3 -3 -2c-4,-2 -9,-4 -15,-3 4,-3 11,-4 17,-3l5 2 4 2c1,0 3,1 4,2l4 3c1,1 2,2 3,3 1,1 2,2 3,3l6 7c4,4 8,9 11,14 12,20 20,42 27,64 3,11 6,22 9,33 2,11 4,22 6,33 2,11 4,22 5,33l5 32c6,43 16,84 30,124 14,40 32,78 56,113 22,34 51,65 84,85 33,21 72,30 109,23l14 -3 13 -4c5,-2 9,-4 14,-6 2,-1 4,-2 6,-3 2,-1 4,-2 6,-3 8,-4 15,-10 22,-16 7,-7 13,-14 18,-22 22,-31 34,-71 40,-112 5,-41 4,-84 -1,-126 -5,-42 -14,-84 -27,-125 -13,-40 -29,-80 -50,-117 -20,-37 -45,-72 -74,-102 -14,-15 -30,-28 -47,-40 -8,-6 -17,-11 -26,-16 -4,-2 -9,-5 -13,-7l-7 -3 -8 -3 -30 -12 -7 -2 -8 -3 -15 -4 -15 -5c-5,-1 -10,-2 -16,-3l-15 -4c-5,-1 -10,-2 -15,-2l-32 -4 -31 -2c-10,1 -21,1 -31,2 -10,1 -21,2 -31,4 -10,2 -20,4 -29,7 -5,2 -10,3 -15,5l-14 5c-10,5 -19,9 -27,14 -5,2 -9,5 -13,8l-6 4 -3 2 -1 1 -1 1 -1 1c-9,8 -23,7 -31,-3 -8,-9 -7,-23 2,-31z"/>
   <path class="fil10" d="M2251 2668c0,180 -101,325 -226,325 -126,0 -227,-145 -227,-325 0,-180 101,-326 227,-326 125,0 226,146 226,326z"/>
   <path class="fil6" d="M2025 2345c-124,0 -224,145 -224,323 0,178 100,322 224,322 123,0 223,-144 223,-322 0,-178 -100,-323 -223,-323zm0 651c-127,0 -230,-147 -230,-328 0,-182 103,-329 230,-329 126,0 229,147 229,329 0,181 -103,328 -229,328z"/>
   <path class="fil6" d="M2025 2364c-113,0 -205,136 -205,304 0,167 92,303 205,303 112,0 204,-136 204,-303 0,-168 -92,-304 -204,-304zm0 652c-138,0 -250,-156 -250,-348 0,-192 112,-348 250,-348 137,0 249,156 249,348 0,192 -112,348 -249,348z"/>
   <path class="fil6" d="M2182 2752c0,88 -71,160 -159,160 -88,0 -160,-72 -160,-160 0,-87 72,-159 160,-159 88,0 159,72 159,159z"/>
   <path class="fil22" d="M2023 3207c113,0 181,-88 153,-264 -4,-24 -10,-46 -16,-66 -44,-132 -231,-132 -274,0 -7,20 -13,42 -16,66 -28,176 39,264 153,264z"/>
   <path class="fil6" d="M2023 2781c-62,0 -115,38 -135,96 -7,22 -12,44 -15,66 -15,95 -3,168 35,213 26,31 66,48 115,48 48,0 88,-17 115,-48 38,-45 50,-118 35,-213 -4,-22 -9,-44 -16,-66 -20,-58 -72,-96 -134,-96zm0 429c-51,0 -92,-17 -120,-50 -39,-46 -52,-121 -36,-218 3,-23 9,-45 16,-66 20,-62 75,-101 140,-101l0 0c64,0 119,39 140,101 7,21 12,43 16,66 15,97 2,172 -37,218 -28,33 -69,50 -119,50z"/>
   <path class="fil23" d="M2023 3184c-44,0 -77,-13 -100,-41 -28,-32 -40,-82 -37,-147 14,110 82,171 184,182 -14,4 -30,6 -47,6z"/>
   <path class="fil24" d="M2160 3009c-3,-9 -6,-18 -8,-27 -20,-58 -66,-90 -116,-97 1,-16 2,-31 3,-46 2,-19 3,-38 4,-57 21,3 41,11 58,22 23,37 43,84 53,142 3,22 5,44 6,63z"/>
   <path class="fil6" d="M2094 2793c-15,-9 -33,-14 -51,-17 0,-1 0,-2 0,-4 18,3 35,9 50,19 0,1 1,1 1,2z"/>
   <path class="fil6" d="M2101 2804c-17,-11 -37,-19 -58,-22 0,-2 0,-4 0,-6 18,3 36,8 51,17 2,3 5,7 7,11z"/>
   <path class="fil24" d="M1891 2952c0,-2 0,-4 1,-6 9,-58 29,-105 52,-142 17,-11 37,-19 59,-22 1,19 2,38 3,57 1,15 2,29 4,44 -47,2 -93,25 -119,69z"/>
   <path class="fil6" d="M1951 2793c2,-3 4,-5 5,-8 15,-7 30,-11 46,-13 0,1 0,3 0,4 -18,3 -35,8 -51,17z"/>
   <path class="fil6" d="M1944 2804c2,-4 5,-8 7,-11 16,-9 33,-14 51,-17 0,2 1,4 1,6 -22,3 -42,11 -59,22z"/>
   <path class="fil6" d="M2045 2685c0,25 0,51 -1,77 -1,26 -3,51 -5,77 -2,26 -4,52 -6,77 -3,26 -6,52 -10,77 -5,-25 -8,-51 -10,-77 -3,-25 -5,-51 -7,-77 -2,-26 -3,-51 -4,-77 -1,-26 -2,-52 -2,-77 0,-13 11,-23 23,-22 12,0 22,10 22,22z"/>
   <path class="fil6" d="M2023 2713c-31,25 -110,101 -131,233 -14,89 -4,157 31,197 23,28 56,41 100,41 43,0 77,-13 100,-41 34,-40 45,-108 31,-197 -21,-132 -101,-208 -131,-233zm0 516c-56,0 -103,-19 -135,-56 -43,-51 -57,-132 -41,-234 30,-184 158,-270 163,-273 8,-5 17,-5 25,0 5,3 134,89 163,273 16,102 2,183 -41,234 -32,37 -78,56 -134,56z"/>
   <path class="fil10" d="M2023 2233c158,0 381,77 381,235 0,159 -223,298 -381,298 -159,0 -382,-139 -382,-298 0,-158 223,-235 382,-235z"/>
   <path class="fil6" d="M2023 2236c-153,0 -379,74 -379,232 0,152 213,295 379,295 165,0 378,-143 378,-295 0,-158 -226,-232 -378,-232zm0 533c-152,0 -385,-135 -385,-301 0,-162 230,-238 385,-238 155,0 384,76 384,238 0,166 -233,301 -384,301z"/>
   <path class="fil8" d="M1775 2682c-32,-22 -62,-49 -85,-78 1,1 2,2 3,3 23,28 51,53 82,75 0,0 0,0 0,0z"/>
   <path class="fil6" d="M1807 2702c-11,-6 -21,-13 -32,-20 0,0 0,0 0,0 11,7 21,14 32,20z"/>
   <path class="fil13" d="M2023 2763c-105,0 -228,-57 -305,-137 74,52 167,85 244,85 159,0 382,-139 382,-298 0,-35 -11,-66 -30,-93 51,37 85,86 85,148 0,100 -88,191 -192,246 -59,31 -125,49 -184,49z"/>
   <path class="fil6" d="M2017 2766c-66,0 -143,-24 -210,-64 -11,-6 -21,-13 -32,-20 -31,-22 -59,-47 -82,-75 8,6 16,13 25,19 77,80 200,137 305,137 59,0 125,-18 184,-49 -62,33 -130,52 -190,52z"/>
   <path class="fil6" d="M2023 2254c-146,0 -361,68 -361,214 0,140 207,277 361,277 154,0 360,-137 360,-277 0,-146 -215,-214 -360,-214zm0 533c-83,0 -183,-36 -263,-93 -89,-65 -140,-147 -140,-226 0,-80 50,-147 143,-195 73,-38 170,-61 260,-61 89,0 186,23 259,61 94,48 143,115 143,195 0,79 -51,161 -140,226 -80,57 -180,93 -262,93z"/>
   <path class="fil6" d="M2030 2317c0,0 -208,-6 -160,107 18,44 46,75 74,97 50,39 121,39 172,0 27,-22 55,-53 73,-97 48,-113 -159,-107 -159,-107z"/>
   <path class="fil6" d="M2022 2339c-44,0 -113,10 -132,38 -2,3 -10,14 0,39 15,34 37,63 67,87 43,33 102,34 145,0 30,-24 52,-53 67,-87 10,-25 3,-36 0,-39 -20,-30 -96,-39 -139,-38l0 0 -1 0c-2,0 -5,0 -7,0zm8 234c-36,0 -71,-12 -100,-35 -36,-28 -63,-63 -81,-105 -16,-39 -7,-66 4,-82 40,-58 160,-57 177,-56 16,-1 137,-2 176,56 11,16 21,43 4,82 -17,42 -44,77 -80,105 -30,23 -65,35 -100,35z"/>
   <path class="fil10" d="M2166 2367c0,24 -34,43 -75,43 -42,0 -75,-19 -75,-43 0,-23 33,-42 75,-42 41,0 75,19 75,42z"/>
   <path class="fil6" d="M2091 2328c-40,0 -72,18 -72,39 0,22 32,40 72,40 39,0 72,-18 72,-40 0,-21 -33,-39 -72,-39zm0 84c-43,0 -78,-20 -78,-45 0,-24 35,-45 78,-45 43,0 77,21 77,45 0,25 -34,45 -77,45z"/>
   <path class="fil10" d="M2135 2446c0,10 -8,18 -19,18 -10,0 -18,-8 -18,-18 0,-11 8,-19 18,-19 11,0 19,8 19,19z"/>
   <path class="fil6" d="M2116 2430c-8,0 -15,7 -15,16 0,8 7,16 15,16 9,0 16,-8 16,-16 0,-9 -7,-16 -16,-16zm0 37c-11,0 -21,-9 -21,-21 0,-12 10,-22 21,-22 12,0 22,10 22,22 0,12 -10,21 -22,21z"/>
   <path class="fil25" d="M2343 1973l0 0c0,0 0,0 0,0 0,0 0,0 0,0z"/>
   <path class="fil5" d="M2671 2544c-17,-4 -33,-11 -49,-21 -33,-20 -62,-51 -84,-85 -24,-35 -42,-73 -56,-113 -14,-40 -24,-81 -30,-124l-5 -32c-1,-11 -3,-22 -5,-33 -2,-11 -4,-22 -6,-33 -3,-11 -6,-22 -9,-33 -7,-22 -15,-44 -27,-64 -3,-5 -7,-10 -11,-14l-6 -7c-1,-1 -2,-2 -3,-3 -1,-1 -2,-2 -3,-3l-4 -3c-1,-1 -3,-2 -4,-2l-4 -2 -5 -2c-2,0 -4,0 -5,0 -5,0 -9,1 -12,3l-88 -122c0,0 0,0 0,0l1 -1 1 -1 1 -1 3 -2 6 -4c4,-3 8,-6 13,-8 8,-5 17,-9 27,-14l14 -5c5,-2 10,-3 15,-5 9,-3 19,-5 29,-7 9,-2 18,-3 27,-4 43,1 93,9 149,28 -43,30 -75,73 -76,152 -7,296 89,414 205,432 -5,42 -6,87 1,133z"/>
   <path class="fil15" d="M2541 1827c-56,-19 -106,-27 -149,-28 1,0 3,0 4,0 10,-1 21,-1 31,-2l31 2 32 4c5,0 10,1 15,2l15 4c6,1 11,2 16,3l15 5 5 1c-5,3 -10,6 -15,9z"/>
   <path class="fil6" d="M2676 2571c-129,-23 -229,-193 -249,-387 -20,-191 -59,-212 -76,-212 -4,0 -7,1 -8,1 0,0 0,0 0,0l0 0c3,-2 7,-3 12,-3 1,0 3,0 5,0l5 2 4 2c1,0 3,1 4,2l4 3c1,1 2,2 3,3 1,1 2,2 3,3l6 7c4,4 8,9 11,14 12,20 20,42 27,64 3,11 6,22 9,33 2,11 4,22 6,33 2,11 4,22 5,33l5 32c6,43 16,84 30,124 14,40 32,78 56,113 22,34 51,65 84,85 16,10 32,17 49,21 1,9 3,18 5,27 0,0 0,0 0,0zm-421 -720l-13 -17c0,0 63,-59 185,-59 45,0 97,8 158,29 -10,4 -20,9 -29,14l-5 -1 -15 -5c-5,-1 -10,-2 -16,-3l-15 -4c-5,-1 -10,-2 -15,-2l-32 -4 -31 -2c-10,1 -21,1 -31,2 -1,0 -3,0 -4,0 -9,1 -18,2 -27,4 -10,2 -20,4 -29,7 -5,2 -10,3 -15,5l-14 5c-10,5 -19,9 -27,14 -5,2 -9,5 -13,8l-6 4 -3 2 -1 1 -1 1 -1 1c0,0 0,0 0,0z"/>
   <path class="fil7" d="M2179 3608c-2,-187 14,-355 14,-355l-338 167c0,221 114,355 114,355l221 0 59 0c7,-16 12,-33 12,-51 0,-49 -33,-92 -82,-116z"/>
   <path class="fil6" d="M1858 3419c15,29 25,58 35,87l7 22c2,8 4,15 7,22 4,15 9,30 14,44 10,29 21,58 32,86 12,29 24,57 37,84l-21 -12 140 1c46,1 93,1 140,1l-19 11c6,-12 9,-26 10,-39 0,-14 -3,-28 -9,-40 -6,-13 -14,-24 -25,-34 -10,-10 -23,-19 -36,-25l0 0c-7,-4 -11,-11 -12,-19l0 -101c0,-34 1,-68 4,-102 2,-34 6,-67 11,-101 6,-33 11,-67 20,-100 1,-2 3,-3 4,-2 2,0 3,1 3,3 3,34 4,67 5,101 0,34 1,68 0,101 0,34 -2,67 -3,101 -2,33 -2,66 -2,100l-11 -19c16,9 32,19 46,32 14,14 26,29 34,48 9,17 13,38 12,57 0,21 -5,40 -14,58l0 0c-3,7 -11,12 -18,12 -47,0 -94,0 -140,0l-140 2c-9,0 -17,-5 -20,-13l0 0c-15,-29 -27,-58 -39,-87 -12,-30 -22,-60 -32,-90 -4,-15 -8,-30 -13,-46 -3,-15 -8,-30 -10,-46 -2,-8 -3,-16 -4,-24 -1,-8 -1,-16 -1,-24 -1,-16 0,-32 2,-48 0,-2 2,-3 4,-3 1,0 2,1 2,2l0 0z"/>
   <path class="fil8" d="M2235 3754c-42,0 -84,0 -126,-1l-125 -1c-11,-23 -21,-48 -31,-72 -11,-28 -22,-57 -32,-86 -5,-14 -10,-29 -14,-44 -3,-7 -5,-14 -7,-22l-7 -22c-10,-29 -20,-58 -35,-87l0 0c0,0 0,-1 0,-1l323 -160c-3,16 -5,31 -8,46 -4,33 -8,65 -11,98 -12,-4 -25,-6 -40,-6 -1,0 -1,0 -1,0 -137,0 -170,278 -111,328 21,19 63,27 106,27 47,0 96,-10 124,-27 0,0 0,1 0,2 0,9 -2,19 -5,28z"/>
   <path class="fil6" d="M2249 3775l-59 0 -221 0c0,0 -114,-134 -114,-355l3 -2c0,0 0,1 0,1l0 0c15,29 25,58 35,87l7 22c2,8 4,15 7,22 4,15 9,30 14,44 10,29 21,58 32,86 10,24 20,49 31,72l125 1c42,1 84,1 126,1 3,-9 5,-19 5,-28 0,-1 0,-2 0,-2 9,-6 15,-13 19,-20 1,7 2,13 2,20 0,18 -5,35 -12,51zm-259 -11l0 0zm193 -354c-7,-3 -14,-6 -21,-8 3,-33 7,-65 11,-98 3,-15 5,-30 8,-46l12 -5c0,0 -6,64 -10,157z"/>
   <path class="fil13" d="M1657 3752l-214 0c-1,0 -3,-1 -4,-1 -3,-2 -5,-3 -8,-4 -5,-3 -11,-6 -16,-8 -10,-6 -21,-13 -31,-20 -19,-14 -38,-30 -55,-47 -33,-35 -59,-77 -76,-123 -8,-23 -14,-46 -19,-70l-2 -19 -2 -9 0 -9 -2 -18 0 -19c-1,-15 0,-30 0,-45 12,57 41,117 109,117 0,0 1,0 2,0 157,-4 212,-130 303,-130 6,0 13,0 19,1 20,11 38,23 53,37 -4,0 -9,-1 -13,-1 -16,0 -34,5 -55,17 -60,35 -35,157 -25,195 -15,5 -30,10 -44,17 -3,1 -5,4 -5,8 1,4 4,6 8,6 0,0 1,0 1,0l1 0c11,-3 22,-5 34,-7 -8,17 -7,33 18,42 25,10 49,19 69,33 0,3 1,6 1,9 1,7 0,14 0,21 -1,7 -2,14 -4,20 -1,3 -2,5 -2,7l-41 0zm71 0c-1,-2 -1,-3 -1,-5 -1,-8 -3,-16 -5,-24 -3,-7 -5,-14 -9,-21 15,12 27,28 35,50l-20 0z"/>
   <path class="fil6" d="M1753 3775l-25 0c0,-1 0,-2 0,-3l0 0c0,-7 0,-13 0,-20l20 0c2,7 4,14 5,23zm-62 0l-252 0c0,0 -307,-110 -218,-522 0,0 -4,52 7,107 0,15 -1,30 0,45l0 19 2 18 0 9 2 9 2 19c5,24 11,47 19,70 17,46 43,88 76,123 17,17 36,33 55,47 10,7 21,14 31,20 5,2 11,5 16,8 3,1 5,2 8,4 1,0 3,1 4,1l214 0 41 0c-2,4 -4,8 -5,12 -2,2 -2,4 -2,7 0,1 0,2 0,4zm-111 -148c-4,0 -7,-2 -8,-6 0,-4 2,-7 5,-8 14,-7 29,-12 44,-17 2,7 3,11 3,11 -3,5 -6,9 -8,13 -12,2 -23,4 -34,7l-1 0c0,0 -1,0 -1,0z"/>
   <path class="fil6" d="M1728 3775l-37 0c0,-2 0,-3 0,-4 0,-3 0,-5 2,-7 1,-4 3,-8 5,-12 0,-2 1,-4 2,-7 2,-6 3,-13 4,-20 0,-7 1,-14 0,-21 0,-3 -1,-6 -1,-9 3,2 7,5 10,7 4,7 6,14 9,21 2,8 4,16 5,24 0,2 0,3 1,5 0,7 0,13 0,20l0 0c0,1 0,2 0,3z"/>
   <path class="fil6" d="M1771 3494l-8 -77c0,0 -16,-26 -49,-32 -15,-14 -33,-26 -53,-37 18,4 37,12 59,26 64,43 71,84 51,120z"/>
   <path class="fil6" d="M2134 2159c20,47 65,67 100,45 35,-21 47,-77 26,-124 -20,-46 -65,-66 -100,-45 -35,22 -46,78 -26,124z"/>
   <path class="fil6" d="M2190 2028c-10,0 -20,3 -29,8 -34,22 -46,77 -26,123 11,25 30,44 51,50 17,5 33,3 47,-6 35,-21 46,-76 26,-122 -11,-25 -29,-44 -51,-51 -6,-1 -12,-2 -18,-2zm14 186c-6,0 -12,-1 -18,-2 -23,-7 -42,-26 -53,-52 -21,-47 -9,-104 27,-126 15,-9 32,-11 49,-6 22,7 41,26 53,52 20,47 8,103 -27,125 -10,6 -21,9 -31,9z"/>
   <path class="fil10" d="M2150 2110c4,18 15,30 25,27 11,-2 16,-19 13,-36 -3,-18 -14,-30 -25,-27 -10,2 -16,19 -13,36z"/>
   <path class="fil10" d="M2226 2142c2,8 8,14 13,13 6,-2 8,-10 6,-19 -2,-8 -8,-14 -13,-13 -5,2 -8,10 -6,19z"/>
   <path class="fil6" d="M1926 2159c-20,47 -65,67 -100,45 -34,-21 -46,-77 -26,-124 20,-46 65,-66 100,-45 35,22 47,78 26,124z"/>
   <path class="fil6" d="M1870 2028c-6,0 -12,1 -18,2 -21,7 -40,26 -51,51 -20,46 -8,101 26,122 14,9 31,11 47,6 22,-6 40,-25 51,-50 20,-46 9,-101 -26,-123 -9,-5 -19,-8 -29,-8zm-13 186c-11,0 -22,-3 -31,-9 -36,-22 -48,-78 -27,-125 11,-26 30,-45 53,-52 16,-5 34,-3 49,6 35,22 47,79 27,126 -12,26 -31,45 -53,52 -6,1 -12,2 -18,2z"/>
   <path class="fil10" d="M1910 2110c-3,18 -14,30 -25,27 -10,-2 -16,-19 -13,-36 4,-18 15,-30 25,-27 11,2 16,19 13,36z"/>
   <path class="fil10" d="M1834 2142c-2,8 -8,14 -13,13 -5,-2 -8,-10 -6,-19 3,-8 8,-14 14,-13 5,2 7,10 5,19z"/>
   <path class="fil6" d="M2176 3675c7,5 12,12 16,20 4,8 7,17 9,26 2,8 2,17 3,26 0,5 0,9 0,14l-1 13c0,10 -9,18 -19,18 -10,0 -18,-9 -18,-19 0,-3 1,-5 2,-7l0 0 5 -11c1,-4 2,-7 4,-11 2,-8 4,-15 5,-23 2,-8 2,-15 2,-23 -1,-8 -3,-16 -8,-23z"/>
   <path class="fil6" d="M2096 3681c5,6 9,12 13,19 3,7 6,14 9,22 2,8 4,16 5,24 1,8 1,16 1,25l0 0c-1,10 -9,18 -19,18 -11,0 -19,-9 -18,-19 0,-3 0,-5 1,-8 3,-5 6,-11 8,-18 2,-6 3,-13 4,-20 0,-7 0,-14 0,-21 -1,-7 -2,-15 -4,-22z"/>
   <path class="fil6" d="M2433 3675c7,5 12,12 16,20 4,8 6,17 8,26 2,8 3,17 3,26 0,5 0,9 0,14l0 13c-1,10 -9,18 -19,18 -11,0 -19,-9 -18,-19 0,-3 0,-5 1,-7l0 0 5 -11c2,-4 3,-7 4,-11 3,-8 5,-15 6,-23 1,-8 2,-15 1,-23 -1,-8 -2,-16 -7,-23z"/>
   <path class="fil6" d="M2365 3681c4,6 8,12 12,19 4,7 7,14 9,22 2,8 4,16 5,24 1,8 1,16 1,25l0 0c0,10 -9,18 -19,18 -10,0 -18,-9 -18,-19 0,-3 1,-5 2,-8 3,-5 5,-11 7,-18 2,-6 3,-13 4,-20 1,-7 1,-14 0,-21 0,-7 -1,-15 -3,-22z"/>
   <path class="fil7" d="M3990 3355c-10,-27 -25,-46 -53,-28 -47,29 -5,111 5,148 16,59 29,125 -13,178 -70,88 -215,60 -288,-10 -29,-29 -53,-69 -50,-111 2,-22 7,-48 33,-48 40,0 24,33 31,55 20,60 137,121 188,65 32,-37 -11,-104 -24,-139 -30,-78 -41,-162 18,-228 78,-87 200,-74 270,16 22,28 40,59 27,96 -23,63 -115,68 -144,6z"/>
   <path class="fil6" d="M3624 3487c-23,0 -28,23 -30,45 -4,51 33,93 49,108 44,43 115,69 176,65 45,-3 82,-22 108,-54 41,-52 28,-115 12,-175 -1,-7 -4,-15 -8,-25 -14,-41 -36,-102 4,-127 11,-7 21,-9 30,-6 14,5 22,22 28,36 13,27 40,43 71,42 31,-2 57,-20 67,-48 13,-36 -6,-67 -26,-93 -35,-45 -85,-72 -136,-74 -49,-2 -95,19 -129,58 -49,54 -55,128 -19,225 3,7 7,15 11,24 17,37 40,87 13,118 -18,20 -47,28 -81,21 -49,-11 -99,-50 -112,-87 -2,-7 -2,-15 -2,-22 -1,-18 -1,-31 -26,-31 0,0 0,0 0,0zm181 224c-59,0 -123,-25 -166,-66 -35,-35 -54,-76 -51,-114 2,-23 8,-50 36,-50 0,0 0,0 0,0 31,0 31,20 32,37 0,6 0,14 2,20 12,36 60,73 107,83 32,6 59,0 75,-19 25,-28 3,-76 -13,-111 -5,-9 -8,-18 -11,-25 -37,-99 -31,-175 19,-231 36,-40 84,-62 134,-60 53,2 105,30 141,76 21,27 40,60 26,99 -11,30 -38,50 -72,52 -33,1 -63,-16 -76,-45l0 0c-8,-20 -16,-30 -25,-33 -7,-3 -15,-1 -25,5 -35,22 -16,79 -1,120 3,10 6,18 8,25 16,59 29,127 -14,181 -26,33 -65,52 -112,56 -4,0 -9,0 -14,0z"/>
   <path class="fil8" d="M3806 3685c-39,0 -80,-12 -114,-32 3,-5 5,-10 6,-15 3,-4 5,-9 7,-14 17,10 36,18 55,22 10,2 19,3 29,3 28,0 53,-10 71,-30 4,-4 7,-9 9,-14 87,-20 -15,-112 -12,-246 0,-29 14,-58 37,-76 15,-11 29,-15 43,-15 19,0 38,8 56,16 18,8 35,16 53,16 8,0 17,-2 25,-6 11,-6 19,-12 24,-20 20,28 24,47 17,67 -9,25 -31,34 -49,35 -1,0 -2,0 -2,0 -18,0 -39,-8 -50,-30 -7,-18 -18,-40 -40,-47 -5,-1 -9,-2 -14,-2 -10,0 -21,3 -32,10 -54,33 -28,107 -13,150 4,9 7,18 8,24 15,55 26,113 -9,158 -27,34 -66,44 -94,46 -3,0 -7,0 -11,0z"/>
   <path class="fil6" d="M3624 3507c-2,0 -8,1 -10,27 -3,42 29,79 43,92 40,39 105,63 160,59 28,-2 67,-12 94,-46 35,-45 24,-103 9,-158 -1,-6 -4,-15 -8,-24 -15,-43 -41,-117 13,-150 16,-10 32,-13 46,-8 22,7 33,29 40,47 11,23 34,31 52,30 18,-1 40,-10 49,-35 8,-22 2,-43 -23,-74 -31,-40 -75,-65 -121,-66 -42,-2 -83,17 -114,51 -44,49 -48,114 -14,205 2,6 6,14 10,23 18,39 46,99 10,139 -24,26 -59,35 -100,27 -56,-12 -112,-56 -126,-100 -4,-10 -4,-20 -4,-28 0,-3 0,-8 -1,-11 -1,0 -2,0 -5,0l0 0zm182 224c-65,0 -135,-28 -181,-72 -39,-38 -60,-86 -56,-129 5,-57 33,-69 56,-69 49,1 50,41 51,56 0,6 0,11 1,14 9,29 53,62 93,70 17,4 40,5 56,-12 16,-18 -4,-62 -17,-90 -5,-9 -9,-18 -12,-26 -40,-107 -32,-189 23,-251 40,-45 94,-69 150,-67 59,2 116,33 155,84 23,30 47,70 30,118 -14,38 -48,63 -90,65 -41,1 -78,-20 -95,-57 0,0 -1,-1 -1,-1 -7,-19 -12,-21 -12,-21 0,0 -3,0 -8,3 -22,14 -5,63 6,96 4,10 7,19 9,27 17,64 31,137 -17,198 -30,38 -74,60 -127,63 -5,1 -9,1 -14,1z"/>
   <path class="fil7" d="M2759 3307l73 360c-31,13 -58,41 -51,105l73 0 68 0 76 0 88 -465 -327 0z"/>
   <path class="fil6" d="M2783 3769l213 0 86 -459 -320 0 74 359 -3 1c-38,15 -54,48 -50,99zm217 6l-222 0 0 -2c-6,-55 11,-91 51,-108l-74 -361 334 0 0 4 -89 467z"/>
   <path class="fil8" d="M2928 3750l-96 0c6,-43 43,-52 70,-63l-69 -167c35,18 74,30 118,37 2,0 4,1 7,1 2,13 4,27 7,40 3,19 7,38 11,57 -6,4 -12,8 -17,13 -10,9 -18,21 -22,33 -5,13 -8,25 -9,38 0,3 0,7 0,11z"/>
   <path class="fil6" d="M2998 3795l-217 0c-12,0 -22,-9 -23,-20 -7,-70 22,-104 48,-120l-70 -343c-2,-13 6,-25 18,-27 12,-3 24,5 27,17l73 361c3,10 -3,21 -14,25 -16,7 -37,20 -38,62l177 0 60 -317c2,-12 14,-20 26,-18 13,2 21,14 19,27l-64 335c-2,10 -11,18 -22,18z"/>
   <path class="fil7" d="M3250 2922c0,0 35,149 176,180 142,31 361,156 270,479 -90,323 -575,-49 -575,-49 0,0 -305,67 -415,-181 -109,-248 182,-664 544,-429z"/>
   <path class="fil8" d="M3041 3237c-138,0 -253,-77 -286,-182 3,-6 7,-12 11,-18 31,44 73,81 123,106 6,22 22,41 43,51 11,5 22,8 34,8 21,0 41,-8 56,-24 4,0 8,0 12,0 83,0 161,-32 221,-86 21,-6 40,-14 58,-23 2,1 4,3 6,5 -40,95 -150,163 -278,163z"/>
   <path class="fil8" d="M3372 3632c-6,-2 -12,-3 -18,-5 -10,-2 -19,-3 -30,-3 -3,-9 -7,-17 -9,-26 -2,-10 -4,-20 -4,-31 0,-22 6,-44 16,-65 10,-21 24,-42 40,-60l1 0c0,-1 1,-3 0,-4 0,0 0,0 0,0 0,0 0,0 0,0 8,0 -63,95 4,194zm-103 -31c-16,-9 -31,-18 -44,-26 2,-17 4,-34 5,-51 1,-9 2,-19 3,-28 26,7 44,12 54,17 -8,15 -14,32 -17,50 -2,13 -2,26 -1,38zm-319 -90c-106,-19 -180,-75 -222,-167 39,47 105,89 215,105 0,0 0,1 0,1 2,21 4,41 7,61z"/>
   <path class="fil26" d="M3332 2929c42,-165 -57,-333 -222,-375 -164,-42 -332,57 -374,222 -42,164 57,332 222,374 164,42 332,-57 374,-221z"/>
   <path class="fil6" d="M3121 3509c4,0 9,2 13,5 3,2 292,221 450,168 45,-15 74,-50 90,-107 33,-118 26,-218 -21,-297 -64,-107 -183,-143 -231,-154 -134,-29 -181,-152 -192,-188 -137,-85 -278,-81 -389,14 -117,99 -167,271 -114,392 42,95 119,152 230,170 84,13 158,-2 159,-2 1,-1 3,-1 5,-1zm409 227c-163,0 -371,-147 -415,-180 -25,4 -90,13 -164,1 -126,-20 -218,-88 -265,-197 -62,-140 -8,-332 126,-445 129,-110 293,-114 450,-12 5,3 8,8 10,14 1,5 34,135 159,163 54,11 188,52 261,175 54,90 63,201 26,332 -20,72 -60,119 -119,138 -22,7 -45,11 -69,11z"/>
   <path class="fil6" d="M3332 2929l0 0 0 0zm-298 -367c-129,0 -247,88 -281,218 -39,155 54,313 209,353 155,39 313,-54 353,-209 39,-155 -54,-313 -209,-352 -24,-7 -48,-10 -72,-10zm0 616c-27,0 -54,-4 -81,-10 -174,-45 -279,-223 -234,-397 44,-173 222,-279 396,-234 174,44 279,222 234,396 -37,147 -170,245 -315,245z"/>
   <path class="fil27" d="M3042 3142c0,0 0,0 0,0 3,-14 3,-29 -1,-42 33,5 64,7 94,7 13,0 27,-1 40,-2 -41,23 -86,36 -133,37z"/>
   <path class="fil6" d="M3040 3160c-2,0 -4,0 -5,0 3,-6 5,-12 7,-18 47,-1 92,-14 133,-37 16,-1 32,-3 48,-6 -52,39 -116,61 -183,61z"/>
   <path class="fil28" d="M3039 3141c-11,41 -52,65 -93,55 -41,-11 -65,-52 -55,-93 11,-41 52,-65 93,-55 41,11 65,52 55,93z"/>
   <path class="fil6" d="M2965 3049c-33,0 -63,22 -71,55 -10,39 14,79 53,89 39,10 79,-14 89,-53 5,-19 2,-38 -8,-55 -10,-17 -26,-29 -45,-34 -6,-2 -12,-2 -18,-2zm0 152c-7,0 -13,-1 -20,-2 -42,-11 -68,-54 -57,-97 11,-42 54,-68 97,-57 20,5 37,18 48,37 11,18 14,39 9,60 -9,35 -42,59 -77,59z"/>
   <path class="fil29" d="M2966 3202c-12,0 -23,-3 -34,-8 4,2 9,4 13,5 7,1 13,2 20,2 21,0 42,-9 57,-24 0,0 0,0 0,1 -15,16 -35,24 -56,24z"/>
   <path class="fil6" d="M3022 3178c0,-1 0,-1 0,-1 2,-2 5,-6 7,-9 -1,2 -2,3 -3,5 -1,1 -3,3 -4,5z"/>
   <path class="fil30" d="M2965 3195c-6,0 -12,0 -18,-2 -28,-7 -48,-29 -54,-55 12,6 24,9 36,9 23,0 46,-10 61,-30 6,-7 10,-15 12,-24 11,2 22,4 32,6 5,13 6,27 2,41 -9,33 -38,55 -71,55z"/>
   <path class="fil6" d="M2965 3201c-7,0 -13,-1 -20,-2 -4,-1 -9,-3 -13,-5 -4,-2 -9,-5 -13,-8 -16,-13 -26,-31 -29,-50 1,1 2,1 3,2 6,26 26,48 54,55 6,2 12,2 18,2 33,0 62,-22 71,-55 4,-14 3,-28 -2,-41 1,0 2,0 3,0 9,22 6,48 -8,69 -2,3 -5,7 -7,9 -15,15 -36,24 -57,24z"/>
   <path class="fil6" d="M2965 3069c-24,0 -46,16 -52,40 -7,28 10,57 39,65 28,7 57,-10 65,-39 3,-14 1,-28 -6,-40 -7,-13 -19,-21 -33,-25 -4,-1 -9,-1 -13,-1zm0 152c-8,0 -16,-1 -25,-3 -52,-14 -85,-68 -71,-121 14,-52 68,-84 121,-71 25,7 47,23 60,46 14,22 17,49 11,75 -12,44 -52,74 -96,74z"/>
   <path class="fil6" d="M2946 3205c-1,0 -1,0 -2,0 -5,-2 -8,-7 -7,-11l19 -74c2,-5 6,-8 11,-7 5,2 8,6 7,11l-19 74c-1,4 -5,7 -9,7z"/>
   <path class="fil7" d="M3486 2437l-243 24c-34,-23 -72,-41 -113,-51 -46,-12 -93,-14 -138,-8l1 0 -213 -146c-21,-15 -50,-5 -58,19 -22,63 -52,183 -24,301l0 0c-28,38 -50,79 -61,122 -46,180 109,309 325,364 217,56 414,18 461,-163 13,-51 12,-108 0,-165 67,-87 94,-192 104,-253 5,-25 -16,-47 -41,-44z"/>
   <path class="fil3" d="M3486 2437l-243 24c-20,-13 -42,-25 -64,-35 -62,48 -101,122 -101,206 0,143 116,259 259,259 32,0 63,-6 91,-16 7,-45 5,-93 -5,-141 67,-87 94,-192 104,-253 5,-25 -16,-47 -41,-44z"/>
   <path class="fil22" d="M2813 2361c-11,-7 -26,-2 -30,10 -11,31 -25,89 -14,147 0,3 1,6 2,9l0 0c0,0 4,-7 14,-17 21,-23 65,-60 138,-73l0 0 -110 -76z"/>
   <path class="fil6" d="M2802 2361c-2,0 -4,0 -6,0 -5,2 -9,6 -10,11 -10,29 -26,87 -14,146 0,1 0,1 0,2 2,-3 6,-7 11,-12 19,-21 63,-59 133,-73l-105 -71c-3,-2 -6,-3 -9,-3zm-34 170l0 -3c-1,-3 -2,-6 -2,-9 -12,-60 4,-119 14,-149 2,-7 8,-12 15,-14 6,-2 14,-1 20,3l114 78 -5 3c-73,13 -117,50 -137,72 -9,10 -14,17 -14,17l-1 1 -4 1z"/>
   <path class="fil31" d="M2812 2493c0,-1 -1,-2 -1,-4 5,-3 10,-7 15,-10 -1,1 -2,2 -4,3 -7,6 -10,11 -10,11l0 0zm99 -50c2,-1 5,-1 7,-2l1 1 0 0c-3,0 -6,0 -8,1z"/>
   <path class="fil32" d="M2811 2482c-3,-38 10,-73 18,-93 2,-3 5,-6 9,-7l52 35 22 19c-45,10 -78,29 -101,46z"/>
   <path class="fil6" d="M2811 2489c0,0 0,-1 0,-2 0,-2 0,-3 0,-5 23,-17 56,-36 101,-46l6 5c-2,1 -5,1 -7,2 -41,5 -69,23 -85,36 -5,3 -10,7 -15,10zm79 -72l-52 -35c1,0 2,0 4,0 2,0 5,1 8,3l40 32z"/>
   <path class="fil6" d="M2802 2370c-1,0 -2,0 -3,0 -2,1 -4,3 -5,5 -9,26 -22,74 -16,125 19,-20 57,-52 116,-69l-88 -60c-1,-1 -3,-1 -4,-1zm-31 169c-6,0 -11,-4 -12,-9 -1,-3 -1,-6 -2,-9 -12,-62 4,-123 15,-154 3,-9 10,-17 20,-20 9,-3 19,-1 28,4l110 76c4,2 5,6 5,10 0,4 -2,8 -5,10 -2,1 -3,2 -5,2 -70,12 -112,48 -131,69 -9,9 -13,16 -13,16 -2,3 -5,5 -9,5 0,0 -1,0 -1,0z"/>
   <path class="fil22" d="M3423 2507c13,-1 23,10 21,23 -6,33 -21,90 -59,136 -2,2 -4,5 -6,7l0 0c0,0 0,-9 -4,-22 -7,-30 -28,-85 -86,-131l0 0 134 -13z"/>
   <path class="fil6" d="M3297 2522c54,47 74,100 81,128 2,7 3,12 3,16 1,-1 1,-1 2,-2 38,-46 53,-104 58,-134 1,-6 -1,-11 -4,-15 -4,-4 -9,-6 -14,-5l-126 12zm83 155l-4 -2 0 -2c0,0 0,-8 -4,-21 -7,-29 -27,-83 -85,-130l0 0 -3 -4 5 -1 133 -13c7,-1 14,2 19,7 5,6 7,13 6,20 -6,31 -20,90 -59,137 -2,2 -4,5 -6,7l-2 2z"/>
   <path class="fil6" d="M3317 2529c44,43 62,89 69,116 30,-42 42,-90 46,-117 1,-2 0,-5 -2,-7 -1,-1 -3,-3 -6,-2l-107 10zm62 156c-2,0 -5,-1 -7,-2 -3,-3 -4,-6 -5,-9 0,0 0,-8 -3,-20 -7,-28 -27,-80 -82,-125 -1,0 -2,-1 -3,-2 -2,-4 -2,-8 -1,-12 2,-4 6,-6 10,-7l133 -13c10,-1 20,3 27,10 7,8 10,17 8,27 -6,32 -21,93 -62,142 -2,2 -4,5 -6,7 -2,3 -5,4 -9,4z"/>
   <path class="fil6" d="M2718 2569c2,6 1,13 -3,19 -28,37 -47,76 -57,115 -20,79 -1,149 58,209 56,57 143,102 252,130 109,28 207,31 282,7 81,-24 132,-77 152,-155 12,-47 12,-101 0,-156 -1,-6 0,-12 4,-17 66,-85 91,-189 101,-243 1,-6 -1,-11 -5,-15 -3,-4 -9,-6 -14,-6l-243 25c-5,0 -10,-1 -14,-4 -33,-22 -69,-38 -107,-48 -41,-11 -84,-13 -129,-7 -6,1 -12,-1 -16,-5l-211 -145c-4,-3 -10,-4 -15,-2 -5,2 -9,6 -11,11 -20,58 -50,173 -24,287zm417 538c-54,0 -114,-8 -178,-24 -254,-66 -385,-215 -340,-390 11,-42 31,-83 59,-122 -26,-121 5,-241 26,-303 6,-17 20,-31 38,-37 17,-6 36,-3 52,8l206 141c47,-5 93,-2 137,9 40,11 78,28 113,51l236 -24c18,-2 36,5 49,18 13,14 18,32 15,51 -10,57 -36,163 -103,254 12,58 11,115 -2,165 -34,132 -147,203 -308,203z"/>
   <path class="fil6" d="M2941 2853c-3,6 -5,13 -7,20 -14,55 7,109 46,119 40,11 84,-26 99,-82 1,-7 3,-14 3,-21l-141 -36z"/>
   <path class="fil22" d="M3037 2943c-4,15 -24,22 -45,16 -22,-5 -36,-21 -32,-36 3,-14 24,-21 45,-16 22,6 36,22 32,36z"/>
   <path class="fil6" d="M2991 2908c-14,0 -26,6 -28,16 -2,6 0,13 6,19 5,6 14,11 24,13 19,5 38,-1 41,-14 4,-12 -10,-27 -30,-32 -4,-1 -9,-2 -13,-2zm15 56c-5,0 -10,-1 -15,-2 -11,-3 -20,-8 -27,-15 -7,-8 -9,-16 -7,-24 4,-16 26,-25 49,-19 23,6 38,24 34,40 -3,12 -17,20 -34,20z"/>
   <path class="fil6" d="M3091 2807c-7,21 -50,38 -71,32 -20,-6 -42,-44 -36,-65 7,-20 39,-15 59,-9 21,6 54,22 48,42z"/>
   <path class="fil10" d="M3069 2797c-1,4 -10,5 -19,2 -9,-3 -15,-8 -14,-12 1,-3 9,-4 18,-1 9,2 16,8 15,11z"/>
   <path class="fil6" d="M3044 2784c-1,0 -1,1 -2,1 -3,0 -5,1 -6,2 0,2 1,4 4,6 2,2 6,4 10,5 9,3 17,2 18,-1l0 0c1,-3 -5,-8 -14,-11 -3,-1 -7,-2 -10,-2zm17 17c-3,0 -7,0 -11,-2 -4,-1 -8,-3 -11,-5 -3,-3 -4,-5 -4,-7 1,-2 3,-3 7,-4 4,0 8,1 13,2 9,3 15,9 14,13l0 0c0,2 -4,3 -8,3z"/>
   <path class="fil7" d="M3117 2863c-4,16 -29,41 -58,34 -28,-7 -47,-26 -43,-42 -4,16 -31,23 -59,16 -28,-8 -38,-41 -34,-57l194 49z"/>
   <path class="fil6" d="M3117 2863c0,6 -3,12 -5,18 -3,5 -8,10 -12,15 -5,4 -11,8 -18,10 -7,3 -14,4 -21,3 -4,0 -7,-1 -11,-2 -3,-1 -6,-1 -9,-3 -6,-2 -13,-5 -18,-9 -6,-4 -12,-9 -17,-16 -2,-3 -4,-8 -5,-12 -1,-5 -1,-11 0,-16 2,-8 10,-13 18,-11 8,2 13,10 11,18l0 0 0 0c-1,6 -4,11 -7,14 -4,4 -7,7 -11,8 -7,4 -15,6 -22,7 -7,1 -14,0 -20,-1 -4,0 -7,-1 -10,-2 -3,-1 -6,-2 -10,-3 -7,-3 -13,-8 -17,-13 -5,-5 -8,-11 -11,-18 -2,-6 -3,-12 -3,-18 0,-7 1,-13 4,-18 1,11 6,22 12,30 7,8 15,13 23,15 2,0 4,0 7,1 2,0 5,0 7,0 5,0 10,0 14,-1 5,-1 9,-2 11,-4 3,-2 4,-3 4,-4l29 7c0,1 0,3 2,6 1,2 4,6 7,8 4,3 8,6 12,8 2,1 5,2 7,4 2,0 5,1 7,2 7,3 17,2 26,-2 10,-4 19,-11 26,-21z"/>
   <polygon class="fil7" points="2781,2777 2710,2759 "/>
   <path class="fil6" d="M2778 2785l-68 -26 73 10c4,0 8,5 7,9 -1,5 -5,8 -10,8 0,0 -1,0 -2,-1z"/>
   <polygon class="fil7" points="2779,2819 2707,2833 "/>
   <path class="fil6" d="M2780 2827l-73 6 70 -22c4,-2 9,1 11,5 1,5 -1,10 -6,11 -1,0 -1,0 -2,0z"/>
   <polygon class="fil7" points="2795,2858 2736,2902 "/>
   <path class="fil6" d="M2800 2865l-64 37 54 -51c3,-3 9,-3 12,0 3,4 3,9 -1,12 0,1 -1,1 -1,2z"/>
   <polygon class="fil7" points="3265,2901 3336,2919 "/>
   <path class="fil6" d="M3267 2893l69 26 -73 -10c-5,0 -8,-5 -8,-9 1,-5 5,-8 10,-8 1,0 1,1 2,1z"/>
   <polygon class="fil7" points="3247,2939 3303,2986 "/>
   <path class="fil6" d="M3252 2932l51 54 -62 -41c-4,-2 -5,-8 -2,-11 2,-4 8,-6 12,-3 0,0 1,1 1,1z"/>
   <polygon class="fil7" points="3214,2965 3244,3032 "/>
   <path class="fil6" d="M3221 2962l23 70 -38 -63c-3,-4 -1,-10 3,-12 4,-3 9,-1 12,3 0,0 0,1 0,2z"/>
   <path class="fil6" d="M3367 3442c-16,18 -30,39 -40,60 -10,21 -16,43 -16,65 0,11 2,21 4,31 3,10 7,20 11,30 10,19 23,37 37,56l0 0c8,10 6,24 -4,32 -9,7 -21,6 -29,-1 -20,-18 -37,-40 -48,-67 -2,-3 -3,-6 -4,-10 -2,-3 -3,-6 -4,-10 -2,-7 -3,-14 -4,-21 -2,-15 -2,-30 0,-44 5,-28 17,-54 34,-75 17,-21 37,-39 60,-51 1,-1 3,0 4,1 1,1 0,3 0,4l-1 0z"/>
   <path class="fil7" d="M2941 3374l60 293c-31,13 -58,41 -51,105l73 0 68 0 76 0 63 -335 -289 -63z"/>
   <path class="fil6" d="M2945 3374c9,23 17,47 25,71 7,24 14,48 20,72 7,24 12,48 18,73 5,24 11,48 15,73l0 0c3,11 -4,21 -13,25 -8,3 -15,7 -20,12 -6,5 -10,11 -13,18 -3,7 -5,16 -6,24 -1,9 -1,19 0,28l-21 -19c18,0 36,1 54,0l54 0 109 -1 -22 18c5,-28 10,-56 15,-84l9 -41 9 -42c6,-28 13,-56 21,-83 8,-27 16,-55 28,-81 1,-2 3,-3 5,-2 1,0 2,2 2,3 1,29 -1,58 -4,86 -2,28 -6,57 -10,85l-7 42 -8 42c-5,28 -10,56 -16,84l0 0c-2,11 -11,18 -22,18l-109 -1 -54 -1c-18,0 -36,0 -54,0 -11,1 -20,-8 -21,-18 -1,-12 -2,-24 -1,-36 1,-13 4,-25 9,-38 4,-12 12,-24 22,-33 10,-10 22,-17 34,-22l-14 26c-5,-25 -10,-49 -14,-74 -5,-24 -9,-49 -13,-73 -3,-25 -6,-50 -9,-75 -2,-25 -5,-50 -5,-75 0,-2 2,-4 4,-4 1,0 2,1 3,3z"/>
   <path class="fil7" d="M3692 3593c0,0 -51,159 -113,179l-346 0c0,0 -61,-235 245,-100l214 -79z"/>
   <path class="fil6" d="M3707 3614c-6,17 -12,33 -19,49 -7,16 -15,32 -23,48 -9,15 -19,30 -31,45 -6,7 -13,14 -21,20 -7,6 -17,12 -28,16 -2,1 -4,1 -6,1l0 0 -331 0 0 0c-10,0 -18,-6 -20,-15 -1,-4 -2,-7 -3,-10 0,-4 -1,-7 -1,-10 -1,-6 -2,-12 -2,-19 -1,-12 0,-26 3,-39 2,-13 7,-27 16,-39 9,-13 21,-23 35,-29 13,-6 27,-8 40,-8 13,-1 26,1 38,3 24,6 46,15 66,27 3,2 5,6 3,9 -2,3 -5,4 -7,4l0 0c-23,-3 -45,-6 -66,-6 -21,-1 -41,2 -56,10 -7,4 -12,9 -16,15 -5,7 -8,14 -10,23 -2,9 -3,19 -3,29 0,5 0,10 1,15 0,2 1,5 1,7 0,3 1,6 1,7l-20 -16 331 0 -7 2c10,-4 21,-13 30,-24 10,-12 19,-25 26,-39 8,-14 15,-28 22,-43 6,-15 12,-31 17,-46l0 0c4,-11 16,-17 27,-13 11,4 17,15 13,26l0 0z"/>
   <path class="fil8" d="M3478 3672c-3,-2 -6,-3 -10,-5 7,1 13,1 19,2l-9 3zm135 -50c22,-25 44,-61 75,-108 -3,20 -8,40 -14,61 -3,10 -6,19 -9,28l-52 19z"/>
   <path class="fil6" d="M3665 3603c3,-9 6,-18 9,-28 6,-21 11,-41 14,-61 9,-14 20,-29 31,-45 -2,34 -9,72 -20,112 -1,3 -2,5 -2,8 -1,0 -2,-1 -3,-1 -2,-1 -5,-1 -7,-1 -9,0 -17,5 -20,14l0 0c0,1 0,1 0,1l-2 1z"/>
   <path class="fil8" d="M3575 3751l-309 0c-1,-4 -1,-9 -1,-13 0,-10 1,-20 3,-29 2,-9 5,-16 10,-23 4,-6 9,-11 16,-15 13,-7 32,-10 51,-10 1,0 3,0 5,0 21,0 43,3 66,6l0 0c0,0 0,0 1,0 2,0 4,-1 6,-4 0,0 0,0 0,-1 17,3 32,4 45,5 4,2 7,3 10,5l9 -3c4,0 8,0 12,0 55,0 85,-15 114,-47l52 -19 2 -1c-5,14 -11,30 -17,45 -7,15 -14,29 -22,43 -7,14 -16,27 -26,39 -8,10 -18,19 -27,22z"/>
   <path class="fil6" d="M3581 3772l-346 0c0,0 -28,-110 52,-136 55,12 99,21 136,26 0,1 0,1 0,1 -2,3 -4,4 -6,4 -1,0 -1,0 -1,0l0 0c-23,-3 -45,-6 -66,-6 -2,0 -4,0 -5,0 -19,0 -38,3 -51,10 -7,4 -12,9 -16,15 -5,7 -8,14 -10,23 -2,9 -3,19 -3,29 0,4 0,9 1,13l309 0c9,-3 19,-12 27,-22 10,-12 19,-25 26,-39 8,-14 15,-28 22,-43 6,-15 12,-31 17,-45 0,0 0,0 0,-1l0 0c3,-9 11,-14 20,-14 2,0 5,0 7,1 1,0 2,1 3,1 -4,11 -8,21 -12,31 -18,46 -58,137 -104,152z"/>
   <path class="fil33" d="M2985 3751c-5,0 -10,0 -15,0 0,-3 0,-6 1,-9 1,-8 3,-17 6,-24 3,-7 7,-13 13,-18 5,-5 12,-9 20,-12 8,-3 14,-11 14,-21 69,-2 119,-30 154,-68 0,1 0,1 0,2l-9 42 -9 41c-4,22 -8,44 -12,66l-90 1 -54 0c-6,0 -13,0 -19,0z"/>
   <path class="fil6" d="M3167 3772l-76 0 -68 0 -73 0c-7,-64 20,-92 51,-105 4,0 8,0 12,0 4,0 7,0 11,0 0,10 -6,18 -14,21 -8,3 -15,7 -20,12 -6,5 -10,11 -13,18 -3,7 -5,16 -6,24 -1,3 -1,6 -1,9 5,0 10,0 15,0 6,0 13,0 19,0l54 0 90 -1c4,-22 8,-44 12,-66l9 -41 9 -42c0,-1 0,-1 0,-2 11,-11 20,-23 29,-36l-40 209z"/>
   <path class="fil6" d="M3043 3691c-4,5 -7,12 -8,19 -1,6 -1,13 -1,20 0,6 2,13 3,19l2 10 3 10 1 0c2,9 -2,17 -11,20 -8,3 -17,-2 -20,-10 0,-2 0,-4 0,-6l0 -11c1,-4 1,-8 2,-12 1,-8 2,-15 5,-22 2,-8 5,-15 9,-21 4,-7 9,-13 15,-16z"/>
   <path class="fil6" d="M3100 3697c-5,13 -7,26 -7,39 0,6 0,12 1,18 1,6 3,12 5,17 3,9 -1,19 -10,22 -9,3 -18,-1 -21,-10 -1,-2 -2,-5 -1,-7l0 0c0,-8 1,-16 3,-23 1,-7 4,-14 7,-21 5,-13 13,-25 23,-35z"/>
   <path class="fil6" d="M2850 3701c-4,5 -6,11 -7,16 -1,6 -1,12 -1,18 0,6 1,12 3,17l2 9 3 8 0 0c2,8 -2,16 -9,18 -8,2 -15,-2 -18,-9 0,-2 0,-4 0,-5l0 -10c1,-4 1,-7 1,-10 1,-7 3,-13 5,-20 2,-6 4,-12 8,-18 3,-6 7,-11 13,-14z"/>
   <path class="fil6" d="M2904 3702c-5,12 -7,24 -7,36 0,6 1,12 2,17 1,6 3,11 4,16 3,8 -1,17 -9,20 -8,3 -17,-1 -20,-9 -1,-2 -1,-4 -1,-6l0 -1c0,-7 1,-14 3,-21 1,-7 4,-13 6,-19 6,-13 13,-24 22,-33z"/>
   <path class="fil31" d="M3199 3061c15,-11 30,-21 44,-31l1 2 -1 -3c20,-14 37,-30 52,-48l8 5 -7 -7c15,-17 27,-37 36,-60l4 0 0 0 0 0 0 0 -4 -1c4,-9 7,-18 9,-27 22,0 44,-3 64,-9 -1,4 -2,8 -3,12 -20,78 -71,131 -152,155 -16,5 -33,9 -51,12zm-46 -612c-10,-6 -20,-13 -30,-19 0,0 1,0 1,0 13,3 25,7 37,12 -3,2 -6,5 -8,7z"/>
   <path class="fil34" d="M3341 2891c10,-35 14,-78 13,-132 -3,-120 -92,-232 -201,-310 2,-2 5,-5 8,-7 24,9 48,21 70,36 4,3 8,4 12,4 1,0 1,0 2,0l243 -25c1,0 1,0 2,0 5,0 9,2 12,6 4,4 6,9 5,15 -9,54 -35,158 -101,243 -4,5 -5,11 -4,17 11,51 12,100 3,144 -20,6 -42,9 -64,9zm83 -396c-1,0 -2,0 -3,0l-133 13c-4,1 -8,3 -10,7 -1,4 -1,8 1,12 1,1 2,2 3,2 55,45 75,97 82,125 3,12 3,20 3,20 1,3 2,6 5,9 2,1 5,2 7,2 4,0 7,-1 9,-4 2,-2 4,-5 6,-7 41,-49 56,-110 62,-142 2,-10 -1,-19 -8,-27 -6,-6 -15,-10 -24,-10z"/>
   <path class="fil32" d="M3386 2645c-2,-9 -6,-21 -12,-35 18,-32 23,-68 25,-89 0,0 0,0 0,0l25 -2c0,0 0,0 1,0 2,0 4,1 5,2 2,2 3,5 2,7 -4,27 -16,75 -46,117z"/>
   <path class="fil35" d="M3374 2610c-11,-24 -28,-53 -57,-81l82 -8c0,0 0,0 0,0 -2,21 -7,57 -25,89z"/>
   <path class="fil6" d="M3379 2685c-2,0 -5,-1 -7,-2 -3,-3 -4,-6 -5,-9 0,0 0,-8 -3,-20 -7,-28 -27,-80 -82,-125 -1,0 -2,-1 -3,-2 -2,-4 -2,-8 -1,-12 2,-4 6,-6 10,-7l133 -13c1,0 2,0 3,0 9,0 18,4 24,10 7,8 10,17 8,27 -6,32 -21,93 -62,142 -2,2 -4,5 -6,7 -2,3 -5,4 -9,4zm-5 -75c6,14 10,26 12,35 30,-42 42,-90 46,-117 1,-2 0,-5 -2,-7 -1,-1 -3,-2 -5,-2 -1,0 -1,0 -1,0l-25 2 -82 8c29,28 46,57 57,81z"/>
   <path class="fil6" d="M3161 3085c13,-8 26,-16 38,-24 18,-3 35,-7 51,-12 81,-24 132,-77 152,-155 1,-4 2,-8 3,-12 9,-44 8,-93 -3,-144 -1,-6 0,-12 4,-17 66,-85 91,-189 101,-243 1,-6 -1,-11 -5,-15 -3,-4 -7,-6 -12,-6 -1,0 -1,0 -2,0l-243 25c-1,0 -1,0 -2,0 -4,0 -8,-1 -12,-4 -22,-15 -46,-27 -70,-36 -12,-5 -24,-9 -37,-12 0,0 -1,0 -1,0 -17,-11 -33,-21 -50,-29 3,0 51,8 54,9 42,10 80,28 114,51l243 -24c1,0 2,-1 4,-1 23,0 41,22 37,45 -10,61 -37,166 -105,253 13,57 14,114 0,165 -31,122 -131,179 -259,186z"/>
   <polygon class="fil31" points="3336,2919 3336,2919 "/>
   <path class="fil6" d="M3336 2919l0 0 -4 0c0,-1 0,-1 0,-1l4 1z"/>
   <path class="fil6" d="M3303 2986l-8 -5c0,-1 1,-1 1,-2l7 7z"/>
   <path class="fil6" d="M3244 3032l-1 -2c0,0 0,0 0,-1l1 3z"/>
   <path class="fil6" d="M2819 2661c10,-12 25,-20 41,-23 8,-2 16,-2 25,-1 8,2 17,4 25,9 4,2 7,4 10,6 3,3 6,6 9,9 6,6 12,13 15,21 7,16 7,34 -2,48 -6,-15 -14,-25 -22,-33 -4,-4 -9,-7 -13,-11 -3,-1 -5,-3 -7,-5 -3,-1 -5,-3 -8,-4l-3 -2c-1,-1 -3,-1 -4,-2 -2,-1 -5,-2 -8,-3 -5,-2 -10,-3 -17,-4 -12,-3 -25,-4 -41,-5z"/>
   <path class="fil6" d="M3305 2769c-14,-6 -26,-12 -38,-16 -6,-2 -12,-3 -17,-4 -3,0 -6,-1 -8,-1 -2,0 -3,0 -4,0l-4 0c-3,0 -6,0 -9,0 -3,0 -6,1 -9,1 -5,1 -11,1 -17,3 -11,3 -22,8 -34,18 -2,-16 7,-32 21,-43 7,-5 15,-9 23,-11 4,-1 8,-2 12,-3 4,0 8,-1 13,-1 8,0 17,2 25,5 8,3 16,7 22,12 12,11 22,25 24,40z"/>
   <path class="fil6" d="M3016 2870c-2,0 -4,-1 -5,-1 -8,-3 -12,-11 -9,-19l14 -41c2,-8 11,-12 18,-10 8,3 12,11 10,19l-14 42c-2,6 -8,10 -14,10z"/>
   <path class="fil6" d="M3319 3688c-5,5 -7,11 -8,18 -1,6 -1,12 -1,19 0,6 2,12 3,18l2 9 3 9 0 1c3,8 -2,16 -10,19 -8,2 -16,-2 -18,-10 -1,-2 -1,-4 -1,-6l1 -10c0,-4 0,-8 1,-11 1,-7 2,-14 5,-21 2,-7 5,-14 8,-20 4,-6 9,-12 15,-15z"/>
   <path class="fil6" d="M3372 3694c-5,12 -7,24 -7,36 0,6 1,12 2,18 1,5 3,11 5,16 3,8 -2,17 -10,20 -8,3 -17,-1 -20,-9 -1,-2 -1,-5 -1,-7l0 0c0,-7 1,-14 3,-21 1,-7 4,-14 6,-20 6,-13 13,-24 22,-33z"/>
   <path class="fil6" d="M4219 3779c-144,10 -289,15 -433,19 -145,3 -289,5 -434,6 -144,0 -289,0 -433,-1l-217 -1 -108 0 -109 0 -433 1c-73,1 -145,1 -217,1 -72,0 -145,0 -217,0 -72,0 -144,-1 -217,-2l-108 -1 -108 -2c-145,-3 -289,-8 -434,-20 -2,0 -4,-2 -4,-5 0,-2 2,-4 4,-4 145,-11 289,-17 434,-20l108 -2 108 -1c73,-1 145,-1 217,-2 72,0 145,0 217,0 72,0 144,0 217,1l433 2 109 0 108 0 217 -1c144,-1 289,-2 433,-1 145,0 289,2 434,6 144,4 289,9 433,18 3,0 5,2 4,5 0,2 -2,4 -4,4z"/>
   <path class="fil1" d="M619 1705l-36 81 123 56c18,8 29,18 35,30 5,13 5,26 -1,38 -6,13 -15,22 -28,26 -13,4 -28,2 -45,-6l-337 -152c-19,-9 -31,-19 -35,-32 -5,-13 -2,-29 6,-48l52 -114c15,-33 29,-58 42,-74 13,-15 29,-27 46,-35 18,-8 36,-11 56,-10 20,0 40,6 61,15 44,20 72,49 82,87 11,38 4,84 -21,138zm-210 -69l-26 59 133 61 27 -60c9,-21 15,-39 17,-55 2,-16 0,-30 -7,-42 -6,-12 -18,-21 -34,-29 -19,-8 -37,-10 -55,-4 -18,7 -37,30 -55,70zm383 -598l-135 172 93 73 124 -159c9,-11 19,-18 28,-20 10,-1 19,1 28,8 8,7 13,15 14,25 1,10 -3,20 -12,32l-125 159 107 84 140 -178c10,-12 20,-19 30,-20 10,-2 20,1 29,8 9,7 14,16 15,26 0,11 -4,22 -13,34l-163 207c-13,17 -26,26 -39,27 -14,2 -28,-4 -45,-17l-283 -222c-11,-9 -19,-18 -23,-26 -5,-9 -6,-18 -3,-28 2,-9 7,-19 16,-30l158 -201c10,-13 20,-20 30,-21 10,-2 19,1 28,8 9,7 14,15 14,25 1,10 -3,22 -13,34zm429 -368l-84 66 215 273c13,16 18,31 17,44 -1,13 -7,24 -18,33 -11,9 -24,12 -37,10 -13,-2 -26,-11 -38,-27l-215 -273 -83 65c-13,11 -25,15 -36,14 -11,0 -20,-5 -28,-15 -7,-10 -10,-20 -8,-31 2,-11 10,-21 22,-31l243 -191c13,-10 25,-15 36,-14 11,1 21,6 28,15 7,10 10,20 8,31 -2,11 -9,21 -22,31zm439 -243l206 269 -1 -341c0,-18 1,-31 1,-38 1,-7 3,-14 8,-21 4,-8 12,-13 22,-17 8,-2 16,-3 24,-1 8,2 15,5 21,10 6,5 10,11 13,18 1,4 2,10 3,15 0,6 1,12 0,17 0,6 0,12 0,18l-9 334c-1,12 -1,24 -1,36 -1,11 -2,22 -5,31 -2,10 -7,19 -14,26 -7,8 -16,14 -29,18 -12,5 -23,6 -34,4 -10,-2 -19,-6 -27,-12 -8,-7 -15,-14 -23,-23 -7,-9 -15,-18 -22,-28l-208 -258c-4,-4 -7,-9 -11,-13 -4,-5 -7,-10 -11,-15 -3,-6 -5,-11 -7,-15 -3,-10 -2,-21 3,-33 6,-12 15,-20 28,-24 15,-5 28,-4 38,3 10,8 21,21 35,40zm799 212l-27 -59 -195 15 -18 63c-7,25 -13,41 -19,50 -6,9 -16,14 -30,15 -12,1 -23,-2 -33,-11 -10,-8 -16,-18 -17,-29 0,-6 1,-13 2,-20 2,-8 5,-17 9,-30l98 -320c3,-9 6,-20 10,-33 4,-13 9,-23 14,-32 5,-9 11,-16 20,-22 9,-6 20,-9 33,-10 13,-1 25,1 34,5 10,5 17,11 24,18 6,8 11,16 16,25 4,9 10,21 17,36l148 299c12,22 18,39 19,50 0,11 -3,21 -12,31 -8,10 -19,16 -32,17 -8,0 -14,-1 -20,-3 -6,-2 -11,-6 -15,-10 -4,-4 -8,-11 -13,-21 -5,-9 -9,-17 -13,-24zm-202 -118l143 -11 -87 -192 -56 203zm812 104c-2,15 -9,31 -19,47 -11,16 -25,31 -44,45 -19,14 -42,24 -68,30 -27,6 -57,7 -90,1 -24,-5 -47,-11 -66,-19 -20,-9 -37,-19 -52,-32 -15,-13 -28,-29 -39,-48 -9,-17 -17,-35 -23,-55 -5,-20 -8,-41 -9,-63 -1,-21 1,-44 5,-67 7,-38 19,-71 35,-99 16,-28 37,-51 61,-69 25,-17 52,-29 81,-36 30,-6 61,-6 92,0 38,6 71,20 98,41 27,20 46,43 58,68 12,26 16,48 13,68 -2,11 -8,20 -17,27 -9,7 -19,9 -30,8 -12,-3 -21,-7 -26,-14 -5,-7 -10,-18 -15,-34 -9,-25 -20,-45 -35,-60 -15,-15 -34,-24 -59,-29 -39,-7 -73,3 -102,28 -28,26 -48,66 -57,121 -7,37 -7,69 -1,95 6,26 17,47 34,62 16,16 37,26 63,30 27,5 52,2 73,-8 22,-10 39,-28 54,-52 6,-12 13,-21 20,-28 8,-7 18,-9 31,-7 12,2 21,8 28,18 6,9 9,19 6,31zm508 244c-7,14 -18,27 -33,39 -15,12 -33,22 -55,30 -23,8 -47,11 -74,9 -28,-2 -56,-10 -86,-26 -22,-11 -42,-24 -58,-37 -16,-14 -29,-29 -40,-46 -10,-17 -18,-36 -23,-57 -4,-19 -6,-39 -6,-59 1,-21 4,-42 10,-63 5,-21 13,-42 24,-63 18,-34 39,-62 62,-84 24,-22 51,-38 79,-48 29,-10 58,-13 88,-11 30,3 60,12 88,26 34,18 62,41 82,68 19,28 31,55 35,83 4,28 2,50 -7,69 -6,9 -14,16 -24,20 -11,4 -22,4 -32,-1 -11,-6 -18,-13 -20,-21 -3,-8 -5,-20 -5,-36 0,-27 -6,-50 -15,-68 -10,-19 -26,-33 -49,-45 -35,-18 -70,-19 -105,-3 -35,16 -65,49 -91,99 -17,33 -26,63 -28,90 -2,27 3,50 14,70 12,19 29,35 52,47 25,12 49,17 72,13 24,-3 46,-15 67,-34 9,-9 19,-16 28,-21 9,-4 19,-3 31,3 11,6 18,14 21,25 4,11 3,21 -2,32zm44 167l233 -297c13,-15 25,-24 38,-26 13,-2 26,1 37,10 11,9 17,20 18,33 2,13 -4,28 -16,43l-233 297c-13,16 -25,24 -39,27 -13,2 -25,-2 -36,-11 -11,-8 -17,-19 -18,-33 -1,-13 4,-28 16,-43zm568 15l-107 321 224 -176c15,-12 28,-17 40,-16 13,0 23,6 31,16 9,11 12,23 10,35 -3,12 -11,23 -26,35l-296 233c-33,26 -60,25 -82,-2 -5,-7 -9,-14 -11,-21 -3,-7 -4,-15 -3,-23 0,-8 2,-16 4,-25 3,-9 6,-17 8,-26l107 -316 -220 174c-15,11 -28,16 -41,15 -13,-1 -23,-6 -31,-17 -9,-11 -12,-22 -9,-35 2,-12 10,-24 24,-35l291 -228c12,-10 23,-16 32,-19 10,-3 21,-2 32,1 11,4 20,10 26,19 6,7 9,14 11,20 1,7 2,14 1,20 -1,7 -3,15 -6,23 -3,9 -6,18 -9,27zm392 708l-90 -199 -107 48 83 184c6,13 8,25 5,34 -3,10 -10,17 -20,21 -10,4 -19,5 -28,1 -10,-4 -17,-12 -24,-26l-83 -184 -124 57 93 206c7,14 8,26 5,36 -3,10 -10,17 -21,22 -10,5 -20,5 -30,1 -10,-5 -18,-14 -24,-27l-109 -241c-8,-19 -10,-35 -6,-47 5,-12 17,-23 36,-31l328 -149c13,-6 24,-8 34,-8 10,0 18,3 26,9 7,7 14,16 19,29l106 233c6,14 8,26 5,36 -4,10 -10,17 -20,21 -11,5 -21,5 -30,1 -9,-4 -17,-13 -24,-27z"/>
   <polygon class="fil36" points="0,0 4896,0 4896,4540 0,4540 "/>
  </g>
 </g>
</svg>
